<?xml version="1.0" encoding="UTF-8"?>
<svg id="Layer_2" data-name="Layer 2" xmlns="http://www.w3.org/2000/svg" viewBox="0 0 488.16 491.89">
  <defs>
    <style>
      .cls-1 {
        fill: #6d406d;
      }

      .cls-1, .cls-2, .cls-3, .cls-4, .cls-5, .cls-6, .cls-7, .cls-8, .cls-9, .cls-10, .cls-11, .cls-12, .cls-13, .cls-14, .cls-15, .cls-16, .cls-17, .cls-18, .cls-19, .cls-20, .cls-21, .cls-22, .cls-23, .cls-24, .cls-25, .cls-26, .cls-27, .cls-28, .cls-29, .cls-30, .cls-31, .cls-32, .cls-33, .cls-34, .cls-35, .cls-36, .cls-37, .cls-38, .cls-39, .cls-40, .cls-41, .cls-42, .cls-43, .cls-44, .cls-45, .cls-46, .cls-47, .cls-48, .cls-49, .cls-50, .cls-51, .cls-52, .cls-53, .cls-54, .cls-55, .cls-56, .cls-57, .cls-58, .cls-59, .cls-60, .cls-61, .cls-62, .cls-63, .cls-64, .cls-65, .cls-66, .cls-67, .cls-68, .cls-69, .cls-70, .cls-71, .cls-72, .cls-73 {
        stroke-width: 0px;
      }

      .cls-2 {
        fill: #c33d3f;
      }

      .cls-3 {
        fill: #d2bff3;
      }

      .cls-4 {
        fill: #7666be;
      }

      .cls-5 {
        fill: #ccb9f0;
      }

      .cls-6 {
        fill: #d54249;
      }

      .cls-7 {
        fill: #c83d46;
      }

      .cls-8 {
        fill: #44418d;
      }

      .cls-9 {
        fill: #332460;
      }

      .cls-10 {
        fill: #7256a9;
      }

      .cls-11 {
        fill: #d2bbf0;
      }

      .cls-12 {
        fill: #020407;
      }

      .cls-13 {
        fill: #452e75;
      }

      .cls-14 {
        fill: #bda9e5;
      }

      .cls-15 {
        fill: #b69fec;
      }

      .cls-16 {
        fill: #954262;
      }

      .cls-17 {
        fill: #2b153a;
      }

      .cls-18 {
        fill: #d2bef0;
      }

      .cls-19 {
        fill: #84b3f6;
      }

      .cls-20 {
        fill: #6f66bc;
      }

      .cls-21 {
        fill: #d4bcf1;
      }

      .cls-22 {
        fill: #010102;
      }

      .cls-23 {
        fill: #d0b9ef;
      }

      .cls-24 {
        fill: #f57062;
      }

      .cls-25 {
        fill: #030304;
      }

      .cls-26 {
        fill: #050205;
      }

      .cls-27 {
        fill: #cfb9ef;
      }

      .cls-28 {
        fill: #d3bdf2;
      }

      .cls-29 {
        fill: #d1b9ef;
      }

      .cls-30 {
        fill: #cfb8ef;
      }

      .cls-31 {
        fill: #c43b3f;
      }

      .cls-32 {
        fill: #cf454a;
      }

      .cls-33 {
        fill: #f07260;
      }

      .cls-34 {
        fill: #d64248;
      }

      .cls-35 {
        fill: #d6bff2;
      }

      .cls-36 {
        fill: #7167b6;
      }

      .cls-37 {
        fill: #826fc2;
      }

      .cls-38 {
        fill: #dc6762;
      }

      .cls-39 {
        fill: #524e9f;
      }

      .cls-40 {
        fill: #9484d5;
      }

      .cls-41 {
        fill: #1c125b;
      }

      .cls-42 {
        fill: #86aff0;
      }

      .cls-43 {
        fill: #0d1135;
      }

      .cls-44 {
        fill: #cfb7f1;
      }

      .cls-45 {
        fill: #e3655c;
      }

      .cls-46 {
        fill: #7e70be;
      }

      .cls-47 {
        fill: #5d97ae;
      }

      .cls-48 {
        fill: #745db5;
      }

      .cls-49 {
        fill: #d4bcf2;
      }

      .cls-50 {
        fill: #d0b8ef;
      }

      .cls-51 {
        fill: #6a5db3;
      }

      .cls-52 {
        fill: #86b4f6;
      }

      .cls-53 {
        fill: #d4bef2;
      }

      .cls-54 {
        fill: #d3bef3;
      }

      .cls-55 {
        fill: #c2b6ec;
      }

      .cls-56 {
        fill: #380f27;
      }

      .cls-57 {
        fill: #cab5f1;
      }

      .cls-58 {
        fill: #b59fe9;
      }

      .cls-59 {
        fill: #5a3977;
      }

      .cls-60 {
        fill: #423e81;
      }

      .cls-61 {
        fill: #d74349;
      }

      .cls-62 {
        fill: #f26c5d;
      }

      .cls-63 {
        fill: #95d2df;
      }

      .cls-64 {
        fill: #d2bcf0;
      }

      .cls-65 {
        fill: #2b2968;
      }

      .cls-66 {
        fill: #d5bff1;
      }

      .cls-67 {
        fill: #050405;
      }

      .cls-68 {
        fill: #0c0c1d;
      }

      .cls-69 {
        fill: #a894e5;
      }

      .cls-70 {
        fill: #1c1857;
      }

      .cls-71 {
        fill: #a994e5;
      }

      .cls-72 {
        fill: #bab1e6;
      }

      .cls-73 {
        fill: #b23c40;
      }
    </style>
  </defs>
  <g id="Layer_1-2" data-name="Layer 1">
    <path class="cls-67" d="m.18,121.72c-.02-1.85.06-3.28.04-5.07-.04-4.71.02-9.08-.03-13.89-.05-3.82,0-7.19.06-11.34-.09-1.22-.17-1.67-.25-2.11,1.03-5.32,1.33-10.92,3.26-15.89,3.79-9.76,11.39-13.89,22.47-13.54,3.26.1,6.53.02,9.77.02.58-5.2,1.06-9.61,1.64-14.81,5.19,0,10.12,0,15.81.14,1.53-.11,2.31-.37,3.08-.63.46-.07.93-.13,1.56.13-.66,5.29-1.48,10.24-2.38,15.66,4.54,0,8.16,0,12.26.05,7.53-.01,14.59-.07,22.1.02,6.45.07,12.46-.01,18.94-.02,9.84,0,19.22-.07,29.05-.02,6.16.07,11.86.02,18.03.03,10.13,0,19.79-.06,29.79.03,3.28.25,6.23.45,9.18.41,7.87-.1,15.73-.3,24.01-.46,2.78-.37,5.14-.74,7.93-1.1,5.73.91,7.38-2.15,7.58-6.67.11-2.44.04-4.89.3-7.52.42-.76.6-1.34.78-1.91,3.07.4,6.14.79,9.66,1.25v14.99c3.81,0,7.23,0,10.64,0s6.98,0,10.95,0c.4-5.81.77-11.34,1.16-17.01h24.18v16.7h24.84c0-5.06-.3-9.87.07-14.63.55-7.01,5.41-11.5,11.51-11.2,6.11.3,9.84,4.73,9.95,11.96.07,4.49.01,8.98.01,13.79h23.82c.3-5.55.59-10.96.89-16.52h23.42v16.56h20.7c.33-5.5.66-10.94,1-16.61h22.59v16.81h23.99c0-8.24-.03-16.33.01-24.42.02-4,.12-7.99.27-11.99.17-4.5,1.77-8.18,6.47-9.55,5.24-1.53,11.22.29,13.54,4.83,1.52,2.96,2.23,6.6,2.35,9.96.34,10.14.22,20.3.29,30.45,0,.14.18.27.28.41,10.08.98,10.26.98,10.28,12.22.06,55.82,0,111.64.02,167.47.02,77.48.06,154.97.13,232.45.01,13.15-5.84,20.1-18.99,20.41-20.98.49-41.97.26-62.96.28-38.32.04-76.64.07-114.96.07-35.82,0-71.64-.07-107.46-.08-47.65,0-95.3.05-142.95.04-8.33,0-16.67.02-24.99-.29-9.59-.35-15.33-6.22-15.59-15.86-.18-6.83.06-13.66,0-20.95.02-20.41.29-40.37.28-60.32-.02-57.41-.15-114.81-.35-172.67-.02-2.18.08-3.9.06-6.04-.08-11.44-.04-22.47-.11-33.96-.02-2.51.08-4.56.06-7.03-.06-4.13,0-7.83-.06-11.97-.02-3.16.07-5.87.05-9.01-.05-4.14.02-7.84-.03-11.99-.01-2.17.08-3.89.07-6.03-.06-4.81,0-9.2-.05-14m19.99,352.57s.08-.04.69.45c3.43-.12,6.86-.25,11.17-.17,2.68-.06,5.37-.11,8.66.16,1.82-.12,3.64-.24,6.37-.17,4.68-.07,9.35-.13,14.68.17,2.47-.13,4.94-.27,8.32-.21,25.47.01,50.93.09,76.4.02,18.3-.05,36.59-.29,55.75-.23,6.97,0,13.95,0,21.45.37,1.49-.14,2.97-.27,5.37-.2,16.65-.3,33.31-.79,49.96-.85,10.95-.04,21.89.65,32.84.78,4.1.05,8.22-.8,12.33-.79,4.94,0,9.88.5,15.6,1.08,16.62.09,33.25.26,49.87.24,10.45,0,20.9-.29,32.09-.27.5-.04,1-.07,2.35.26,7.47-.14,14.93-.29,22.94-.34.35-.08.7-.15,1.62.13,1.5-.15,3-.3,5.33-.31,1.39-.05,2.78-.09,4.79.23,2.12-.14,4.23-.29,7.05-.31,1.11-.36,2.22-.73,3.82-1.16.32-.2.44-.49.77-1.58.14-3.46.29-6.92.64-11.26-.05-3.99-.1-7.98,0-12.78-.04-1.09-.08-2.19.02-3.76,0,0-.13-.48.04-1.36-.06-2.38-.12-4.76,0-8.06-.02-4.03-.05-8.07.12-12.88-.06-1.06-.13-2.12-.04-4.01-.06-1.4-.12-2.8,0-4.98-.06-1.06-.12-2.12-.02-4.12-.01-9.03-.03-18.06.14-28.01-.41-4.69-.82-9.37-1.54-14.73-5.58-4.21-11.82-1.91-18.39-2.01-.4-.04-.8-.08-1.72-.33-.18.04-.37.08-1.48.01-37.08.02-74.16.02-111.23.06-24.27.03-48.54.11-73.47,0-.45.05-.89.11-2.26-.01-12.36.07-24.72.13-37.82.03-.75.06-1.51.12-3.17,0-4.03.05-8.06.09-12.83-.03-.75.06-1.51.11-3.18,0-6.69.06-13.39.12-20.82.02-.75.06-1.51.12-3.18,0-51.27-.02-102.55-.04-153.82-.04-8.1,0-8.65.44-8.64,8.41.03,32.46.15,64.92.31,97.38,0,1.39.67,2.78,1.17,4.69.31.12.62.25.96.46m83.81-128.03c2.04-.07,4.07-.14,7.02.05,19.7-.1,39.41-.19,60.02-.03,11.03-.08,22.07-.17,33.59-.04.17-.07.33-.13,1.41,0,18.37-.09,36.74-.17,55.75,0,.44-.08.87-.16,2.23-.04,18.6.03,37.21.11,55.81.09,13.44-.02,26.89-.17,41.23-.04,6.35-.03,12.7-.06,19.9.16,2.07-.06,4.15-.13,7.11-.03,3-.04,5.99-.07,9.9.17,19.05-.09,38.09-.18,58.04-.05,1.66.03,3.33.09,4.99.1,8.92.04,9.97-.96,9.9-10.03-.06-8.99-.4-17.98-.4-26.97-.02-63.79.04-127.58.01-191.37,0-13.64-.25-27.27-.4-41.49-.34-.11-.67-.23-1.84-.48-1.39.06-2.78.13-5.1.03-6.01.07-12.02.14-18.87.07-1.41.05-2.81.09-4.86-.02-.44.05-.88.11-2.23.02-4.04.05-8.09.09-13.04-.02-4.34.06-8.68.13-13.95.06-10.72.06-21.44.12-33.05,0-3.34.04-6.68.09-10.88,0-1.74.05-3.48.1-6.11-.01-3.34.05-6.68.1-10.71.02-.46.05-.93.09-2.22-.03-1.7.06-3.39.12-5.9.04-1.09.05-2.18.09-4.18-.03-4.34.05-8.67.1-13.7.02-.46.04-.93.09-2.29-.04-3.68.04-7.35.08-11.96-.02-5.05.06-10.09.12-16.01.01-2.35.06-4.7.12-7.89.05-1.42.05-2.83.1-5.16-.02-5,.04-10,.08-15.92-.02-3.38.04-6.77.08-11.02-.04-2.36.05-4.72.1-7.91.02-1.41.05-2.81.11-5.14,0-4.68.04-9.35.08-14.92,0-2.72.04-5.43.08-9.01-.04-2.03.06-4.06.11-7.03.04-11.71.05-23.41.1-35.9-.01-1.06.05-2.11.11-4.1.03-11.71.05-23.42.09-35.99-.02-2.36.05-4.71.11-8,.03-14.71.06-29.42.11-44.91,0-1.05.06-2.1.11-3.84.03-.46.04-.93.09-2.28-.04-3.01.07-6.02.14-9.92.07-2.4.05-4.8.1-8.11-.02-3.66.07-7.33.13-11.76.06-.78.05-1.56.1-3.26-.02-5.33-.03-10.66-.16-15.99-.06-6.05.11-7.23,1.14-7.88,7.19-.37,3.47-.36,6.99-.36,10.48-.02,73.46-.01,146.92-.03,220.38,0,8.99-.15,17.99-.05,26.98.02,2.09-.58,5.16,4.09,4.77,4.5-.04,9-.08,14.05,0,.18-.07.35-.13,1.34.22,22.27-.09,44.54-.19,67.68-.14Z"/>
    <path class="cls-25" d="m64.02,41.4c.72-2.53,1.54-5.03,2.12-7.58.94-4.1,2.61-7.07,7.58-6.81,4.3.22,8.62.05,13.43.05.33-5.78.5-11.05.98-16.3.48-5.25,5.01-9.93,9.84-10.53,4.57-.57,9.4,2.02,10.82,6.25.78,2.32,1,4.88,1.1,7.35.17,4.3.05,8.6.05,12.73h25.41c0-5.1-.2-9.57.04-14.02.42-7.77,5.15-12.82,11.38-12.52,6.28.3,10.34,5.51,10.38,13.35.02,4.46,0,8.93,0,13.41h25.95c.31-5.4.56-10.37.89-15.33.44-6.45,4.96-11.25,10.46-11.2,5.87.05,10.52,4.92,10.72,11.46.15,4.93.03,9.87.03,14.95,5.61,0,10.4-.11,15.2.02,7.2.2,8.59,1.7,8.76,8.95.02.82.19,1.64.61,3.11.66,4.02-1.81,3.53-4.28,3.61-7.03.04-13.6.14-20.65.12-6.89-.1-13.31-.08-20.19-.14-16.19.02-31.92.11-48.07.12-2.75-.07-5.08-.05-7.87-.13-13.53-.02-26.61.07-40.14.08-7.05-.03-13.65.02-20.63.04-1.56-.36-2.74-.7-3.93-1.04Z"/>
    <path class="cls-60" d="m63.69,41.43c1.51.3,2.69.63,4.23,1.46-.07,6.16-.49,11.83-.92,17.5h-11.78c.9-5.42,1.72-10.37,2.73-15.66,1.93-1.31,3.67-2.28,5.74-3.3Z"/>
    <path class="cls-68" d="m225.94,42.4c2.01-.13,4.48.35,4.15-3.4,1.58.97,3.14,2.32,4.88,3.94,0,.85-.18,1.43-.91,2.06-1.69.99-3.39,1.71-3.84,2.9-1.04,2.73-1.46,5.68-2.46,9.91-.64-5.89-1.1-10.21-1.66-14.74-.09-.22-.17-.68-.17-.68Z"/>
    <path class="cls-60" d="m55.74,44.51c-.48.35-1.25.6-2.32.72.48-.36,1.25-.59,2.32-.72Z"/>
    <path class="cls-33" d="m450.17,363.53c.4.04.8.08,1.58.52,1.37,1.69,2.36,2.98,3.34,4.7.36,3.49.72,6.54,1.07,10.07-.09,16.47-.15,32.48-.55,48.53-2.05,2.35-3.77,4.65-5.85,6.99-5.01,1.56-7.26,5.24-9.79,8.66.6.54,1.21,1.07,1.81,1.61,2.78-3.43,5.56-6.86,8.76-10.3,2.1,0,3.78,0,5.48.44.02,2.47.01,4.51-.34,6.62-3.5,8.59-10.38,14.16-16.49,20.32-4.87,4.9-10.71,6.76-18.63,4.89,3.74-4.83,7.04-9.11,10.35-13.38-.34-.32-.68-.64-1.02-.96-4.06,3.97-7.54,9.01-12.34,11.6-4.62,2.49-10.62,2.44-17.36,3.77,2.23-3.86,3.55-6.14,4.86-8.41-.28-.37-.56-.73-.84-1.1-5.95,6.43-13.6,7.43-21.83,8.21.54-2.28.93-3.92,1.32-5.55-.28-.48-.55-.97-.83-1.45-5.68,7.47-13.95,6.47-22.29,9.44,1.59-3.89,2.56-6.29,3.54-8.68-.36-.4-.72-.79-1.08-1.19-5.32,8.75-15.15,4.99-22.56,10.17,0-1.91.02-2.67,0-3.42-.02-.65-.07-1.3-.19-3.19-6.37,7.58-13.72,8.71-22.12,6.94.62-1.82,1.22-3.61,1.67-4.91-6.68,1.29-12.91,2.49-19.15,3.69-.6-.88-1.19-1.76-1.79-2.63,4.57-4.53,9.13-9.06,13.25-13.15-.77.45-2.96.97-3.85,2.34-6.27,9.69-16.59,11.77-26.56,14.53-.65.18-1.48-.29-4.03-.85,6.02-5.63,11.11-10.38,16.42-15.34-4.47-1.72-6.82-.25-8.95,2.97-5.44,8.21-13.75,11.3-21.8,7.68,2.46-2.15,4.45-4.24,6.78-5.83,2.18-1.49,4.73-2.46,7.11-3.65l-.76-1.44c-5.12-1.28-9.02-.64-12.17,4.79-5.59,9.65-14.7,12.42-25.22,10.77,2.31-7.55,10.49-9.46,14.36-15.74-2.4-.01-5.83.04-6.38,1.33-5.32,12.47-18.13,10.26-27.34,14.98-.38-.53-.76-1.06-1.13-1.59l18.84-14.37c-3.42-.44-7.41-.89-9.96.8-3.09,2.05-4.6,6.33-7.45,8.91-3.68,3.33-7.28,7.03-13.37,6.2-2.34-.32-6.44.6-5.36,5.26-18.3.15-36.59.39-54.89.44-25.46.07-50.93,0-77.12-.41-3.23-.19-5.74.02-8.25.22-4.68.07-9.35.13-14.73-.19-2.56-.18-4.42.02-6.28.22-2.68.06-5.37.11-8.76-.23-4.16-.24-7.61-.08-11.06.08,0,0-.08.04-.22-.21-.36-.5-.63-.66-.96-.72-.36-1.39-1.02-2.78-1.03-4.17-.15-32.46-.28-64.92-.31-97.38,0-7.97.54-8.41,8.64-8.41,51.27,0,102.55.02,154.18.48-2.75.89-5.88,1.74-8.99,1.69-4.1-.06-8.17-1.17-11.39,2.68-2.24,2.67-4.88,3.03-8.25,1.3-3.48-1.8-7.31-2.08-10.77.75-4.91,4.02-10.27,7.58-14.78,12-6.45,6.32-12.33,13.23-18.38,19.95-.51.57-.44,1.66-.64,2.52.38.37.75.73,1.13,1.1,9.22-6.85,18.43-13.7,27.65-20.55.33.33.66.66.99.98-1.07,2.16-2.26,4.28-3.18,6.5-1.15,2.79-2.09,5.68-3.11,8.52,3.02.01,6.04.02,9.15.49.13,8.13.13,15.79.2,23.46.14,16.07,8.91,25.16,25.07,25.19,52.49.08,104.98.03,157.47-.17,11.12-.04,19.57-4.81,23.88-15.92,2.73.22,5.01.66,7.3.64,5.7-.06,11.4-.32,17.45-.58,2.2-2.1,4.04-4.12,5.95-6.23.07-.1-.08-.29.2-.52.39-.93.5-1.63.79-2.63.34-1.46.5-2.61.79-4.21.11-6.1.09-11.75.16-17.64.05-.41.01-.58-.04-.77,0-.03-.01.02.16-.09.08-.48-.01-.85-.06-1.64-.82-10.39-1.97-11.5-11.72-11.42-5.48.05-10.96.23-16.86.27-2.13-.13-3.84-.17-5.7-.52-3.47-3.06-6.79-5.83-9.75-8.66,3.44-2.86.47-4.18-1.05-5.84-1.02-1.1-2.68-2.03-2.98-3.3-1.39-5.85-5.25-7.68-11.02-5.03-1.24.57-2.78.95-4.11.8-3-.34-5.95-1.47-8.94-1.56-3.92-.11-7.94,1.07-11.79.63-7.04-.8-14.02-2.57-18.41,2.1-4.3-1.18-7.32-1.94-10.28-2.88-.95-.3-1.73-1.11-2.59-1.69,24.27-.06,48.54-.14,72.81-.17,37.08-.04,74.16-.04,111.8.14.86.13,1.15.06,1.44,0Z"/>
    <path class="cls-18" d="m35.5,345.99c-.18.07-.35.13-.61-.14-.51-.75-.92-1.16-1.57-1.85-2.44-3.43-4.66-6.58-6.91-10.19-.14-19.8-.24-39.13-.29-58.93.06-33.87.03-67.27.09-100.68.02-11.96.24-23.91.69-35.89,1.08-.57,1.94-1.03,2.58-1.7,7.8-8.15,15.44-16.47,23.39-24.47,7-7.05,14.4-13.69,21.47-20.67,1.3-1.28,1.87-3.29,3.24-5.03,4.48-.03,8.5,0,12.53.43,0,1.75,0,3.09-.15,4.74-7.05,7.43-13.95,14.57-21.14,21.84-13.63,13.47-27.73,26.08-39.37,41.07,1.28.08,2.18-.27,2.81-.9,11.68-11.63,23.34-23.27,34.95-34.97.87-.88,1.29-2.22,2.26-3.38,9.11-8.68,17.89-17.32,26.97-25.99,1.11-.34,1.89-.66,3.07-.97,1.8-.64,3.2-1.27,4.98-1.96,1.12-.02,1.87.01,2.62.45-.33,3.11-.67,5.81-1.14,8.8-5.05,5.43-9.95,10.57-15.2,15.74-3.84,3.39-7.4,6.68-10.81,10.12-7.88,7.94-15.65,15.98-23.52,23.94-8.26,8.35-16.61,16.62-24.84,25-1.09,1.11-1.72,2.66-2.56,4,.39.31.79.62,1.18.94,1.29-1.16,2.66-2.26,3.86-3.51,6.79-7.07,13.46-14.26,20.34-21.24,6.16-6.24,12.38-12.44,18.91-18.29,2.29-2.06,5.56-3.03,8.2-4.21-4.43,4.84-5.57,10.29-5.55,16.38.1,55.64-.02,111.28.19,166.91.02,4.81,1.91,9.62,2.51,14.53-8.2,4.94-15.86,9.9-21.96,17.78,6.07,1.36,10.02.47,12.68-4.57.73-1.38,3.11-1.9,4.69-2.45-1.01,3.11-1.99,5.86-3.43,8.63-2.62.02-4.78-.02-6.93.03-9.41.21-18.82.44-28.22.66Z"/>
    <path class="cls-37" d="m464.11,76.46c1.39-.06,2.78-.13,4.71.08.74.53,1,.7,1.32.78.13,13.64.38,27.27.38,40.91.02,63.79-.03,127.58-.01,191.37,0,8.99.34,17.98.4,26.97.06,9.08-.98,10.07-9.9,10.03-1.66,0-3.33-.06-5.48-.5-.52-.6-.56-.8-.57-1.44.06-34.22.11-68,.13-101.78.03-50.58.02-101.16.08-151.75,0-2.9.16-5.58-4.51-4.75-4.48,0-8.51.05-12.87.04-.78-.13-1.23-.2-1.62-.62,1.57-1.4,2.99-3.11,4.63-3.36,4.54-.7,9.19-.69,13.77-1.15,2.98-.3,6.52.19,7.83-3.98.76-.29,1.23-.57,1.71-.84Z"/>
    <path class="cls-46" d="m462.12,77.32c-1.03,4.14-4.56,3.66-7.55,3.96-4.59.46-9.23.45-13.77,1.15-1.64.25-3.06,1.96-5.06,3.42-2.2.48-3.91.54-5.87.52-.41-.14-.58-.19-.82-.61-1.73-1.06-3.39-2.31-5.07-2.35-8.4-.2-16.81-.26-25.21.03-1.91.07-3.77,1.73-5.98,2.72-.78.12-1.23.19-2.13.21-3.82-.11-7.18-.18-10.59-.58-3.91-4.54-7.01-4.33-10.32.37-1.13.02-1.88-.02-2.71-.4-1.97-1.18-3.81-2.2-5.77-2.84-2.99-.98-5.68-.94-6.53,3.22-1.61.3-2.84.54-4.32.79-.59.03-.92.06-1.43-.06-.45-.32-.66-.55-.88-1.17-4.87-2.54-9.89-3.47-15.15-3.14-.31.02-.68.16-.91.37-2.31,2.04-4.59,1.19-7.12.27-6.1-2.23-9.57-1.25-12.11,2.98-.82.02-1.28-.03-1.82-.43-1.5-1.04-2.86-2.04-4.36-2.36-8.28-1.78-16.64-1.57-25.06-1.16-4.59.23-9.23-.62-13.85-.79-3.57-.14-7.16,0-10.74.04-3.71.04-7.43.12-9.33,4.65-4.15.15-7.84.23-11.93.25-1.47-.04-2.54-.01-4.07-.03-4.82-.1-9.18-.16-13.59-.56-2.38-3.52-4.36-3.52-6.4.36-4.82.15-9.18.24-13.97.26-2.48-.04-4.53-.02-7.02-.04-3.15,0-5.85.03-8.88.03-.78,0-1.22.04-1.92.01-.42-.12-.58-.17-.8-.57-2.4-3.61-4.38-3.59-6.2.37-.42.14-.59.2-1.19.2-2.48-.02-4.52.02-6.96,0-1.49-.01-2.57.04-3.62,0,.03-.09.08-.27.02-.54-.71-.08-1.35.11-2.42.35-2.14.11-3.86.17-5.98.17-1.47-.02-2.53,0-4.02,0-1.81,0-3.2.03-5.01.02-2.15-.1-3.88-.14-5.64-.54-2.35-3.62-4.32-3.7-6.22.33-.8.14-1.26.21-2.17.22-4.15-.01-7.83.03-11.95.02-2.15-.05-3.87-.04-6-.07-1.8-.02-3.2.01-4.59.05-.75-.03-1.5-.06-3.04-.09-2.18.05-3.57.11-5.21.09-.41-.12-.58-.17-.8-.55-2.17-3.81-3.77-3.11-4.99.38.03.09.09.26-.29.2-1.15-.02-1.91.01-2.68.05-4.02-.03-8.04-.06-12.79-.06-.9.04-1.08.06-1.48.04-.23-.04-.68.03-1.02-.02-.8-.02-1.25,0-2.08-.03-1.12-.02-1.88.01-3.07,0-3.14-.12-5.84-.19-8.56-.63-1.73-4.95-5.7-3.35-8.83-3.33-5.82.03-11.65.79-17.47.73-1.58-.01-3.13-1.85-4.37-3.02,2.22-1.06,4.04-2.15,6.02-2.75,1.78-.54,3.73-.53,5.6-.76.78-.05,1.56-.1,3.06.14,4.46.13,8.21-.03,11.95-.19,2.4-.05,4.8-.1,7.97.15,3.85.14,6.95-.03,10.04-.2.46-.04.93-.09,1.96.15,1.73.14,2.89,0,4.04-.15,14.71-.06,29.42-.11,44.89.14,3.21.15,5.66-.01,8.12-.17,11.71-.05,23.42-.09,35.82.15,1.86.14,3.02,0,4.19-.15,11.71-.05,23.41-.1,35.86.15,2.88.14,5.01-.02,7.14-.18,2.72-.04,5.43-.08,8.92.21,5.54.16,10.3,0,15.07-.16,1.41-.05,2.81-.11,4.93.15,3.16.15,5.62,0,8.07-.16,3.38-.04,6.77-.08,10.93.19,5.87.17,10.96.02,16.05-.12,1.42-.05,2.83-.1,4.97.15,3.16.14,5.6-.02,8.04-.18,5.05-.06,10.09-.12,15.92.14,4.55.17,8.32.01,12.08-.14.46-.04.93-.09,2.06.18,5.09.15,9.52,0,13.94-.16,1.09-.05,2.18-.09,3.95.15,2.47.14,4.26,0,6.05-.16.46-.05.93-.09,2.05.17,4.09.15,7.52,0,10.95-.17,1.74-.05,3.48-.1,5.96.16,4.17.16,7.6.02,11.03-.13,10.72-.06,21.44-.12,32.94.14,5.22.14,9.64-.04,14.07-.21,4.04-.05,8.09-.09,12.75.12,1.17.14,1.72.01,2.27-.11,1.41-.05,2.81-.09,4.96.18,6.18.42,11.62.52,17.06.63Z"/>
    <path class="cls-24" d="m263.79,363.49c1.19.66,1.97,1.47,2.92,1.77,2.96.94,5.98,1.7,10.28,2.88,4.39-4.66,11.37-2.89,18.41-2.1,3.85.44,7.86-.75,11.79-.63,2.99.08,5.94,1.21,8.94,1.56,1.33.15,2.86-.23,4.11-.8,5.77-2.65,9.63-.82,11.02,5.03.3,1.26,1.97,2.19,2.98,3.3,1.53,1.66,4.5,2.98.71,5.84-1.75-.33-2.8-.74-4.13-1.4-3.09-.33-5.91-.41-9.18-.41-8.81,0-17.16-.06-25.68-.4-1.07-.09-1.95.09-3.3.35-12.81.04-25.17-.02-37.7-.34-1.07-.09-1.95.08-3.3.34-12.15.03-23.83-.02-35.74-.36-1.75-.1-3.28.08-5.24.36-2.8.04-5.16,0-7.73-.33-1.43-.09-2.65.1-4.33.38-7.8.02-15.14-.04-22.72-.4-2.09-.1-3.94.09-6.23.36-4.15.23-7.86.38-11.68.4-.45-.26-.71-.15-1.22.34-6.43,2.06-12.24,4.85-15.08,10.74-1.6,3.3-1.26,7.54-1.8,11.35-3.02-.01-6.04-.02-9.06-.03,1.03-2.84,1.96-5.73,3.11-8.52.92-2.23,2.11-4.34,3.18-6.5-.33-.33-.66-.66-.99-.98-9.22,6.85-18.43,13.7-27.65,20.55-.38-.37-.75-.73-1.13-1.1.2-.85.12-1.95.64-2.52,6.05-6.73,11.93-13.63,18.38-19.95,4.51-4.42,9.87-7.98,14.78-12,3.45-2.83,7.28-2.54,10.77-.75,3.37,1.73,6.01,1.38,8.25-1.3,3.23-3.86,7.3-2.74,11.39-2.68,3.11.04,6.23-.81,9.45-1.61.85-.41,1.6-.46,2.84-.07,3.6,1,6.87,1.12,9.8,2.18,4.53,1.64,7.84-.79,11.46-2.48.75-.06,1.51-.11,2.75.29,4.82,1.72,9.16,2.91,13.25-.24.75-.06,1.51-.12,2.75.27,2.7.78,5.03.78,7.08,1.54,2.11.79,3.93,2.33,5.59,3.37,2.3-1.17,4.49-3.05,6.84-3.29,3.72-.39,7.58.68,11.34.44,2.51-.16,4.93-1.53,7.4-2.35.45-.05.89-.11,1.67-.08Z"/>
    <path class="cls-62" d="m201.77,474.22c-1.5-4.76,2.59-5.68,4.94-5.36,6.09.83,9.69-2.87,13.37-6.2,2.85-2.58,4.37-6.86,7.45-8.91,2.55-1.7,6.54-1.24,9.96-.8l-18.84,14.37c.38.53.76,1.06,1.13,1.59,9.21-4.72,22.02-2.51,27.34-14.98.55-1.29,3.99-1.35,6.38-1.33-3.86,6.27-12.05,8.19-14.36,15.74,10.52,1.65,19.63-1.13,25.22-10.77,3.15-5.43,7.04-6.07,12.17-4.79l.76,1.44c-2.38,1.2-4.93,2.16-7.11,3.65-2.33,1.59-4.32,3.68-6.78,5.83,8.05,3.62,16.36.53,21.8-7.68,2.13-3.22,4.48-4.69,8.95-2.97-5.31,4.96-10.4,9.71-16.42,15.34,2.55.57,3.38,1.03,4.03.85,9.97-2.76,20.29-4.84,26.56-14.53.89-1.37,3.07-1.9,3.85-2.34-4.12,4.09-8.69,8.62-13.25,13.15.6.88,1.19,1.76,1.79,2.63,6.24-1.2,12.47-2.4,19.15-3.69-.44,1.3-1.05,3.08-1.67,4.91,8.4,1.77,15.75.64,22.12-6.94.11,1.89.17,2.54.19,3.19.02.75,0,1.51,0,3.42,7.41-5.18,17.24-1.42,22.56-10.17.36.4.72.79,1.08,1.19-.98,2.4-1.95,4.79-3.54,8.68,8.34-2.97,16.61-1.97,22.29-9.44.28.48.55.97.83,1.45-.39,1.64-.78,3.28-1.32,5.55,8.23-.77,15.88-1.78,21.83-8.21.28.37.56.73.84,1.1-1.32,2.27-2.63,4.55-4.86,8.41,6.75-1.33,12.74-1.28,17.36-3.77,4.8-2.58,8.28-7.63,12.34-11.6.34.32.68.64,1.02.96-3.31,4.27-6.61,8.55-10.35,13.38,7.91,1.87,13.76,0,18.63-4.89,6.11-6.15,12.99-11.73,16.52-19.85.41,5.09.44,9.78.44,14.91-1.03,4.81-2.03,9.19-3.26,13.68-.5.32-.68.59-1.07,1.07-1.45,1.06-2.62,1.98-3.78,2.89-.35.08-.7.15-1.81.07-8.18-.06-15.61.04-23.03.13-.5.04-1,.07-2.23-.11-27.82-.17-54.91-.11-81.99-.05-4.94-.28-9.88-.77-14.83-.78-4.11,0-8.22.84-12.33.79-10.95-.13-21.9-.82-32.84-.78-16.65.06-33.31.54-50.65.47-2.2-.19-3.71,0-5.22.19-6.97,0-13.95,0-21.35-.09m250.37-12.49c.43-.71,1.15-1.38,1.23-2.13.13-1.18.12-2.56-.41-3.53-.22-.4-2.66-.3-2.89.16-.82,1.67-1.14,3.6-1.64,5.43,1.07.19,2.13.39,3.71.07m-191.09,6.31c.62-.46,1.24-.93,1.86-1.39-.29-.31-.57-.62-.86-.94-.49.63-.99,1.27-1,2.33Z"/>
    <path class="cls-69" d="m204.12,346.03c-11.03.08-22.07.17-33.56-.26-.5-5.52-4.56-4.68-7.58-5.5-1.68-.45-3.25-1.31-4.4-1.98,28.95,1.18,57.48-1.89,85.99,1.7,9.59,1.21,19.61-1.1,29.44-1.64,1.93-.11,3.89.58,5.84.81,3.26.38,6.54,1.11,9.78.94,5.89-.31,11.75-1.59,17.64-1.73,12.65-.28,25.31-.02,37.97-.18,1.64-.02,3.27-1.24,5.35-2.01,5.82,0,11.19.12,16.54.6-.75,1.09-1.4,2.28-2.24,2.44-3.9.75-5.32,3.01-4.74,6.78-13.44.09-26.89.25-40.33.26-18.6.02-37.21-.05-56.43-.38-1.16-.17-1.7-.05-2.25.08-18.37.09-36.74.17-55.66,0-.82-.15-1.09-.06-1.36.03Z"/>
    <path class="cls-36" d="m41.6,76.54c-1.42.32-3.36.31-5.14.85-1.98.6-3.8,1.69-6.41,2.75-3.04,1.44-5.37,2.7-7.7,3.97,1.73,2.09,3.45,4.19,5.07,6.53-.2.39-.3.54-.78.69-4.16.56-4.43,3.47-4.5,6.35-.37,15.41-.95,30.82-.97,46.23-.11,61.28-.14,122.57.13,183.85.02,4.95-.38,10.81,4.56,14.63.36.28.19,1.27-.14,1.94-2.1.58-3.81,1.14-5.52,1.71-3.95.56-3.35-2.51-3.37-4.6-.09-8.99.05-17.99.05-26.98.01-73.46,0-146.92.03-220.38,0-3.5-.01-7.01.36-10.48.65-6.04,1.83-7.08,7.88-7.19,5.33-.09,10.66.03,16.45.15Z"/>
    <path class="cls-71" d="m158.12,338.3c1.62.67,3.19,1.52,4.87,1.98,3.02.82,7.08-.03,7.13,5.37-19.7.48-39.41.57-59.57.19-2.12-3.45-3.79-6.43-5-9.54,5.15-.05,9.85.02,14.64.48.62.74,1.13,1.4,1.66,1.4,9.27.07,18.55.12,27.82,0,.86-.01,1.7-1.17,2.95-1.88,1.76-.03,3.12.03,4.53.47.36.76.67,1.15.98,1.54Z"/>
    <path class="cls-5" d="m185.04,60.31c-9.66.06-19.33.13-29.36-.28.31-5.8.99-11.13,1.73-16.9,9.53,0,18.63,0,28.01.32.06,5.83-.16,11.35-.38,16.86Z"/>
    <path class="cls-52" d="m129.17,42.42c2.33-.02,4.65-.04,7.44.48.47,6.16.48,11.77.5,17.39-9.38.07-18.75.15-28.57-.28-.11-4.44.52-8.37.47-12.3-.04-3.4.96-4.63,4.49-4.58,5.22.08,10.45-.44,15.68-.7Z"/>
    <path class="cls-61" d="m471.11,381.31c.01,9.03.03,18.06-.27,27.78-.46,1.53-.6,2.38-1.09,3.26-4.45,2.01-8.53,3.99-12.62,5.49,0-11.15,0-21.84.38-32.53,3.6-1.78,7.8-2.4,8.97-7.04,4.01-2.13,3.25,1.96,4.64,3.03Z"/>
    <path class="cls-19" d="m67.47,60.43c-.05-5.72.38-11.39.83-17.51,6.62-.51,13.22-.56,20.31-.07.5,6.17.51,11.81.51,17.45-7.06.06-14.12.12-21.65.14Z"/>
    <path class="cls-42" d="m225.48,42.34c.45.06.53.52.54,1.19.02,5.71.03,10.74.04,15.77-2.36.37-4.73.74-7.96,1.01-4.94-.1-9.02-.1-12.8-.1v-17.64c6.58-.1,13.15-.2,20.18-.24Z"/>
    <path class="cls-20" d="m89.57,60.45c-.45-5.79-.46-11.43-.5-17.52,13.03-.55,26.1-.64,39.64-.62-4.76.37-9.99.88-15.21.8-3.52-.05-4.53,1.18-4.49,4.58.05,3.93-.58,7.87-.94,12.23-6.03.51-12.04.6-18.49.53Z"/>
    <path class="cls-51" d="m204.83,42.47c.47,5.84.47,11.56.47,17.75,3.78,0,7.86,0,12.39.1-7.41.26-15.28.46-23.14.56-2.95.04-5.9-.16-9.18-.41-.11-5.67.11-11.18.04-17.2-.29-.5-.31-.87-.31-.87,6.42-.02,12.84-.03,19.73.06Z"/>
    <path class="cls-4" d="m184.64,42.33c.46.08.48.44.49.62-9.1.18-18.2.18-27.73.18-.74,5.76-1.42,11.1-2.2,16.83-5.8.46-11.5.52-17.66.44-.47-5.74-.48-11.36-.53-17.43,15.7-.55,31.43-.64,47.62-.66Z"/>
    <path class="cls-34" d="m457.12,418.31c4.09-1.97,8.18-3.94,12.72-5.75.62.43.86.62,1.15.74.06,1.4.12,2.8-.14,4.83-.15,1.81,0,2.98.17,4.16.02,4.03.05,8.07-.37,12.55-2.93-.09-5.76-3.04-7.68,1.77-2.05,2.1-3.95,3.9-5.85,5.23,0-5.82,0-11.17.38-16.53,4.68-1.38,7.88-3.82,9.75-7.56l-1.07-1.08c-3.02,1.55-6.04,3.09-9.06,4.27,0-1.13,0-1.88,0-2.63Z"/>
    <path class="cls-6" d="m463.12,436.31c1.77-4.51,4.61-1.56,7.45-1.01.4,2.39.46,4.77.3,7.68-.41.86-.32,1.12.04,1.31.04,1.09.08,2.19-.19,3.98-.54,2.64-.77,4.57-.91,5.83-3.51,1.52-6.53,2.69-9.42,4.12-2.29,1.13-3.45.88-3.27-2.38,0-3.82,0-7.18.38-10.54,3.65-2.31,6.93-4.61,10.21-6.91-.29-.54-.58-1.08-.87-1.62-1.24-.16-2.48-.31-3.72-.47Z"/>
    <path class="cls-58" d="m360.6,346.14c-1.02-3.88.39-6.14,4.29-6.89.84-.16,1.49-1.35,2.69-2.56,5.81-.45,11.16-.4,16.6-.19.38.05.67-.07,1.3-.28.79,0,1.24.06,1.64.5-1.03,3.09-2.01,5.83-3.35,8.58-1.46.3-2.57.58-3.67.86-6.35.03-12.7.06-19.5-.02Z"/>
    <path class="cls-57" d="m384.13,345.29c.98-2.73,1.96-5.47,3.29-8.67,1-.46,1.65-.44,2.67-.36,1.27-.25,2.16-.57,3.34-1.09,1.38-.58,2.47-.95,3.62-.93,3.29,5.17,8.02,5.25,11.71.77,2.22-2.7,4.7-5.18,7.06-7.76.39.38.77.76,1.16,1.14-.57.76-1.11,1.54-1.71,2.27-4.04,4.88-8.09,9.76-12.55,14.66-2.16.34-3.91.65-5.66.96-3,.04-5.99.07-9.66-.22-1.53-.47-2.4-.62-3.27-.76Z"/>
    <path class="cls-32" d="m471.2,380.85c-1.48-.62-.73-4.7-4.95-2.84-1.84.21-3.15.57-4.4,1.09-1.61.67-3.16,1.47-4.74,1.88-.31-1.1-.63-1.86-.94-2.62-.36-3.06-.73-6.12-.69-9.66,5.13-1.11,9.85-1.74,14.57-2.36.41,4.69.82,9.37,1.14,14.52Z"/>
    <path class="cls-6" d="m452.13,471.35c.09-.33.28-.6,1.16-.93,4.76-2.95,9.27-5.41,12.93-8.79,1.97-1.82,2.75-3.14,4.6-.4-.14,3.46-.29,6.92-.83,10.83-.64.65-.79.89-.86,1.19-1.11.36-2.22.73-3.95.76-2.76-.13-4.91.07-7.06.27-1.39.05-2.78.09-4.61-.24-.75-1.16-1.07-1.93-1.38-2.7Z"/>
    <path class="cls-31" d="m470.92,460.79c-1.95-2.3-2.73-.98-4.7.84-3.66,3.38-8.17,5.83-12.71,8.67.62-4.38,1.62-8.75,2.88-13.56.26-.43.72-.43.72-.43-.17,2.8.98,3.05,3.27,1.92,2.89-1.43,5.9-2.6,9.42-4.12.15-1.26.37-3.2.84-5.43.29,3.69.33,7.68.28,12.12Z"/>
    <path class="cls-33" d="m261.66,363.48c-2,.92-4.43,2.28-6.94,2.44-3.76.24-7.62-.83-11.34-.44-2.36.25-4.54,2.13-6.84,3.29-1.67-1.04-3.49-2.58-5.59-3.37-2.05-.77-4.38-.76-6.71-1.46,12.24-.43,24.6-.5,37.42-.48Z"/>
    <path class="cls-31" d="m339.37,474.57c26.7-.21,53.79-.27,81.24-.19-10.08.3-20.54.57-30.99.58-16.62.01-33.25-.15-50.26-.4Z"/>
    <path class="cls-43" d="m226.49,59.32c-.44-5.04-.45-10.07-.38-15.56.55,3.85,1.02,8.17,1.65,14.06.99-4.23,1.42-7.19,2.46-9.91.45-1.19,2.15-1.91,3.59-2.72.3,2.57.37,5.02.26,7.46-.2,4.52-1.85,7.58-7.58,6.67Z"/>
    <path class="cls-15" d="m105.09,336.43c1.66,2.98,3.33,5.95,4.99,9.28-2.03.42-4.06.49-6.79.25-1.87-.46-3.05-.6-4.21-1.15-.31-2.77-.63-5.13-.66-7.53.79-.36,1.27-.69,2.16-1.1,1.77.03,3.14.14,4.51.26Z"/>
    <path class="cls-40" d="m99.06,345.21c1.18.14,2.36.29,3.8.67-22.01.33-44.28.43-66.96.32,9-.43,18.41-.66,27.82-.86,2.15-.05,4.31,0,7.4,0,9.94-.04,18.94-.08,27.94-.12Z"/>
    <path class="cls-73" d="m469.91,366c-4.57.96-9.29,1.59-14.42,2.27-1.38-1.24-2.37-2.53-3.46-4.1,5.91-.42,12.14-2.71,17.88,1.83Z"/>
    <path class="cls-40" d="m397.52,346.41c1.3-.45,3.05-.77,5.67-1.08,17.83-.08,34.79-.16,51.75-.23.03.2.07.39.14.88-19.01.39-38.05.48-57.56.43Z"/>
    <path class="cls-33" d="m204.66,363.47c-3.16,1.77-6.47,4.21-11,2.57-2.93-1.06-6.19-1.19-9.42-2.1,6.58-.43,13.27-.49,20.42-.47Z"/>
    <path class="cls-40" d="m20.56,346.1c1.35-.65,3.05-1.21,5.61-1.78,3.02-.02,5.2-.03,7.37-.05.42.41.83.82,1.07,1.52-4.69.32-9.19.36-14.05.31Z"/>
    <path class="cls-33" d="m220.66,363.51c-3.64,3.24-7.98,2.05-12.43.42,3.91-.42,7.94-.46,12.43-.42Z"/>
    <path class="cls-31" d="m423.64,474.77c7-.28,14.42-.38,22.34-.36-6.98.26-14.45.4-22.34.36Z"/>
    <path class="cls-36" d="m462.4,77.3c-5.72-.08-11.16-.19-16.93-.54,5.69-.32,11.7-.39,18.17-.38-.01.35-.49.63-1.25.92Z"/>
    <path class="cls-45" d="m20.56,474.5c3.15-.4,6.6-.56,10.32-.42-3.16.42-6.59.54-10.32.42Z"/>
    <path class="cls-45" d="m61.41,474.56c2.18-.39,4.69-.59,7.46-.51-2.2.42-4.67.56-7.46.51Z"/>
    <path class="cls-36" d="m280.62,76.49c-4.63.23-9.73.38-15.14.28,4.68-.29,9.68-.33,15.14-.28Z"/>
    <path class="cls-36" d="m240.63,76.44c-4.31.24-9.08.4-14.17.3,4.36-.3,9.03-.34,14.17-.3Z"/>
    <path class="cls-36" d="m337.62,76.47c-3.97.24-8.39.4-13.14.31,4.01-.29,8.35-.35,13.14-.31Z"/>
    <path class="cls-31" d="m451.84,471.49c.6.63.92,1.4,1.26,2.48-1.48.46-2.98.62-4.76.59.88-1.1,2.05-2.01,3.5-3.07Z"/>
    <path class="cls-36" d="m424.63,76.43c-3.97.25-8.4.43-13.15.36,4.01-.31,8.35-.37,13.15-.36Z"/>
    <path class="cls-31" d="m458.43,474.48c1.84-.38,3.98-.58,6.39-.51-1.85.41-3.97.56-6.39.51Z"/>
    <path class="cls-36" d="m56.62,76.5c-3.3.24-7.04.41-11.11.34,3.34-.29,7-.36,11.11-.34Z"/>
    <path class="cls-36" d="m321.63,76.46c-3.32.24-7.09.39-11.17.29,3.36-.29,7.04-.33,11.17-.29Z"/>
    <path class="cls-45" d="m40.38,474.57c1.56-.37,3.42-.57,5.52-.48-1.58.41-3.4.53-5.52.48Z"/>
    <path class="cls-36" d="m360.63,76.47c-2.98.24-6.41.4-10.16.31,3.03-.29,6.37-.34,10.16-.31Z"/>
    <path class="cls-36" d="m377.63,76.49c-2.98.23-6.41.38-10.16.28,3.03-.29,6.37-.33,10.16-.28Z"/>
    <path class="cls-45" d="m223.39,474.51c1.24-.38,2.75-.57,4.49-.48-1.26.4-2.74.54-4.49.48Z"/>
    <path class="cls-36" d="m74.64,76.46c-2.65.25-5.75.42-9.16.35,2.7-.3,5.7-.37,9.16-.35Z"/>
    <path class="cls-36" d="m133.66,76.43c-2.02.24-4.47.4-7.21.32,2.06-.29,4.42-.35,7.21-.32Z"/>
    <path class="cls-36" d="m253.66,76.42c-2.02.24-4.48.4-7.22.31,2.07-.29,4.43-.34,7.22-.31Z"/>
    <path class="cls-36" d="m293.65,76.46c-2.01.24-4.45.4-7.19.33,2.05-.29,4.4-.35,7.19-.33Z"/>
    <path class="cls-40" d="m383.77,345.3c1.23.13,2.09.27,3.19.66-1.85.31-3.92.38-6.43.32.67-.4,1.78-.68,3.24-.98Z"/>
    <path class="cls-36" d="m216.67,76.39c-1.7.24-3.84.41-6.25.33,1.75-.3,3.79-.35,6.25-.33Z"/>
    <path class="cls-36" d="m347.67,76.46c-1.38.24-3.17.39-5.23.32,1.43-.28,3.12-.34,5.23-.32Z"/>
    <path class="cls-36" d="m80.7,76.46c-.77.23-1.93.37-3.31.3.82-.27,1.87-.32,3.31-.3Z"/>
    <path class="cls-7" d="m471.11,421.9c-.25-.79-.42-1.96-.34-3.35.3.84.37,1.9.34,3.35Z"/>
    <path class="cls-36" d="m173.71,76.42c-.78.23-1.94.38-3.33.3.83-.28,1.89-.33,3.33-.3Z"/>
    <path class="cls-7" d="m471.08,412.91c-.38.27-.62.08-.88-.39.04-1.05.18-1.9.56-2.97.3.84.35,1.91.32,3.36Z"/>
    <path class="cls-40" d="m261.46,346.11c.23-.25.78-.37,1.48-.3-.29.27-.72.35-1.48.3Z"/>
    <path class="cls-36" d="m439.78,76.43c-.23.21-.78.33-1.48.27.28-.24.72-.3,1.48-.27Z"/>
    <path class="cls-36" d="m470.13,77.03c-.31.2-.57.03-.9-.43.22-.09.55.02.9.43Z"/>
    <path class="cls-31" d="m469.37,473.22c-.18-.26-.02-.5.41-.79.27.27.15.55-.41.79Z"/>
    <path class="cls-45" d="m19.14,473.58c.26-.19.53-.04.87.42-.19.08-.5-.04-.87-.42Z"/>
    <path class="cls-7" d="m470.98,444.05c-.43.05-.52-.21-.2-.63.14-.09.27.39.2.63Z"/>
    <path class="cls-73" d="m449.91,363.43c-.03.17-.32.24-.72.16.09-.19.27-.22.72-.16Z"/>
    <path class="cls-40" d="m204.37,346.13c.02-.2.29-.29.65-.24-.08.21-.24.28-.65.24Z"/>
    <path class="cls-26" d="m296.13,378.38c8.35.07,16.69.14,25.85.31,3.58.23,6.35.36,9.11.49,1.05.41,2.1.82,3.49,1.22,3.66,2.76,6.98,5.52,10.56,8.97.82,5.1,1.38,9.52,1.92,14.38,0,3.16.04,5.86.02,9-.03,2.48-.02,4.52-.06,7-.03,2.16,0,3.89-.04,6.01-.31,3.12-.57,5.84-.82,8.56-3.87,11.11-12.33,15.88-23.44,15.92-52.49.2-104.98.25-157.47.17-16.16-.03-24.94-9.12-25.07-25.19-.06-7.66-.07-15.33-.2-23.46.44-4.28.11-8.51,1.7-11.81,2.85-5.89,8.65-8.68,15.33-10.69.76-.13.92-.2,1.07-.26,3.71-.15,7.43-.3,12-.41,2.58-.04,4.31-.11,6.04-.18,7.34.07,14.69.13,22.74.28,1.9-.04,3.09-.15,4.28-.27,2.36.05,4.72.09,7.93.17,2.25-.04,3.65-.12,5.05-.19,11.68.05,23.37.11,35.88.19,1.59-.05,2.35-.12,3.11-.2,12.35.05,24.7.11,37.89.19,1.59-.05,2.35-.13,3.11-.2m33.55,56.31c.17-12.24.43-24.49.33-36.73,0-.92-2.61-2.56-4.04-2.6-8.28-.23-16.58-.08-25.8-.18h-144.08c0,12.82-.05,24.95.09,37.07.01.99,1.3,1.96,2.91,3.13,47.01-.03,94.02-.06,141.53.02.17-.02.34-.04,1.45,0,8.97-.09,17.94-.18,27.61-.72Z"/>
    <path class="cls-22" d="m379.16,403.38c.02,5.65.04,11.3-.47,17.35-8.64.24-16.75.08-25.11-.18-.81-.55-1.37-.99-1.99-1.86-.22-2.4-.39-4.38-.49-6.8.1-2.77.13-5.1.63-7.49,9.45-.38,18.45-.7,27.44-1.03Z"/>
    <path class="cls-41" d="m351.16,389.58c5.48-.12,10.96-.31,16.44-.36,9.75-.08,10.9,1.03,11.67,11.75-.09.97-.07,1.19-.06,1.41,0,0,0-.05-.46-.06-5.29,0-10.11-.02-14.94-.02q-12.83,0-12.64-12.73Z"/>
    <path class="cls-17" d="m353.83,420.66c8.11.16,16.22.31,24.73.52.24,1.21.08,2.36-.53,4.05-.57,1.24-.68,1.94-.8,2.63,0,0,.15.19-.34.3-4.47-.53-8.44-1.39-12.46-1.77-3.36-.32-6.78-.07-10.28-.31-.17-.4-.22-.56-.23-1.11,0-1.7-.05-3.01-.1-4.32Z"/>
    <path class="cls-56" d="m354.26,426.33c3.39,0,6.81-.24,10.17.07,4.01.38,7.98,1.23,12.39,1.86-1.42,2-3.27,4.02-5.91,6.06-5.37.03-9.93.03-14.55.03-.78-2.98-1.44-5.5-2.1-8.03Z"/>
    <path class="cls-9" d="m350.74,389.5q.24,12.83,13.06,12.82c4.82,0,9.64,0,14.94.05.52.2.56.37.51.78-9.09.57-18.08.89-27.78.98-1.93-.43-3.16-.62-4.39-.82-.56-4.42-1.12-8.83-1.78-13.63,1.6-.34,3.31-.3,5.44-.17Z"/>
    <path class="cls-16" d="m354.16,426.09c.77,2.75,1.43,5.28,2.21,8.26,4.62,0,9.19,0,14.2.05-5.25.23-10.95.5-16.65.55-2.28.02-4.57-.41-7.3-.64-.19-2.72.07-5.44.81-8.57,2.48-.4,4.46-.38,6.44-.37.06.16.12.32.28.72Z"/>
    <path class="cls-2" d="m457.12,455.85c0,.46-.47.46-.7.46-.26-4.69-.3-9.38-.36-14.54-.02-2.5-.01-4.54,0-7.45-.04-2.92-.08-4.96-.13-7.01.07-16.01.13-32.02.22-48.49.33.3.64,1.06.96,2.56,0,1.8.01,2.87.01,3.94,0,10.68,0,21.37-.01,32.52,0,1.22,0,1.97,0,3.5,0,1.84,0,2.91.01,3.98,0,5.35,0,10.7-.01,16.9,0,1.6,0,2.35,0,3.1,0,3.36,0,6.72-.01,10.53Z"/>
    <path class="cls-62" d="m450.12,434.31c-2.78,3.43-5.56,6.86-8.34,10.3-.6-.54-1.21-1.07-1.81-1.61,2.53-3.42,4.78-7.09,9.79-8.66.36-.04.36-.04.36-.04Z"/>
    <path class="cls-62" d="m455.61,427.35c.37,2,.42,4.04.42,6.53-1.72.44-3.39.43-5.49.43-.42,0-.42,0-.42,0,1.72-2.3,3.44-4.61,5.49-6.96Z"/>
    <path class="cls-56" d="m377.51,427.63c-.16-.46-.05-1.16.34-2.09.16.46.05,1.16-.34,2.09Z"/>
    <path class="cls-9" d="m379.38,402.28c-.19-.11-.2-.34-.16-.89.15.04.24.41.16.89Z"/>
    <path class="cls-12" d="m105.54,336.29c-1.82.02-3.19-.09-5.29-.33-2.55-.31-4.37-.49-6.45-.85-1.25-.43-2.25-.69-3.5-1.22-3.9-2.88-7.55-5.48-11.21-8.06-.01.01,0-.02,0-.02-1.02-4.81-2.92-9.61-2.93-14.42-.21-55.64-.09-111.27-.19-166.91-.01-6.09,1.13-11.55,5.54-16.4.17-.31.2-.3.45-.49,1.35-1.41,2.45-2.63,3.36-4.01-.06-.06.08.04.48,0,.97-.83,1.68-1.53,2.36-2.24-.03-.02,0,.05.28-.01.54-.34.79-.62,1.25-.9.2,0,.43-.34.72-.38,1.26-.59,2.24-1.14,3.42-1.68.21,0,.56-.24.87-.21,1.34-.24,2.38-.52,3.83-.72,1.81-.02,3.2-.12,4.99-.12,1.46.03,2.54-.03,3.94,0,1.38-.24,2.42-.57,3.63-.57,1.11.39,2.06.44,3.46.6,3.55-.24,6.66-.58,9.98-.92.21,0,.6-.17.95-.09,1.84-.08,3.34-.25,4.92-.28.09.15.42.28.66.67,6.52.42,12.79.44,19.39.56.77.04,1.22,0,1.92.04.43.03.6-.03,1.14,0,1.12.03,1.87-.02,3.08.02,5.83.02,11.19-.05,16.92-.04,1.12.03,1.87-.02,3.07.02,4.82.02,9.18-.06,13.87-.05.77.05,1.22,0,1.92.05.43.03.6-.02,1.1,0,.77.03,1.21-.02,2.11.03,11.82.01,23.18-.08,34.87-.07.77.04,1.21,0,2.12.05,25.82,0,51.18-.1,76.91-.12,1.12.05,1.87,0,2.88.05.43.03.6-.02,1.17,0,1.46.03,2.53-.02,4.06.02,20.16.04,39.85,0,59.99.03,3.89-.06,7.35-.21,10.83-.39.03-.03.02-.06.23.25.46.3.71.29,1.14.52.57.25.95.28,1.65.46,2.43,1.17,4.53,2.17,6.74,3.42.4.37.7.5,1.13.89.45.43.78.62,1.15.99.21.44.44.56.87.83.66.61,1.17.93,1.76,1.54.46.68.86,1.08,1.26,1.73.19.55.45.71.91,1.03.95,1.48,1.8,2.65,2.77,4.2.8,4.41,2.07,8.45,2.08,12.49.15,55.79.04,111.58.24,167.37.04,10.23-4.73,16.75-13.33,21.2-1.1.37-2.19.75-3.93,1.3-1.55.47-2.45.76-3.35,1.05-.65-.01-1.29-.03-2.24.07-.75.04-1.21-.04-2.26-.12-.78.06-.95.13-1.13.2-5.35-.05-10.69-.09-16.49-.02-5.82,0-11.18-.11-17.46-.25-60.15-.04-119.4-.06-178.64-.04-4.8,0-9.6.23-14.4.36-1.36-.06-2.72-.12-4.86-.26-11.23.04-21.69.15-32.14.27-4.7-.08-9.4-.16-14.55-.1m-14.17-63.16c.1,2.06.2,4.12.18,7.01.05,1.39.09,2.78-.18,5.04.1,4.38.2,8.75.17,14.05.01,4.34.02,8.69-.25,13.7.08.47.15.95.1,2.25-.03,7.08.46,7.54,7.66,7.53,95.1-.1,190.21-.15,285.31-.32,11.71-.02,11.01,1.87,10.8-11.92-.08-2.74-.17-5.49-.15-9.15-.04-5.65-.07-11.3.13-17.72-.08-.79-.16-1.57-.15-3.23-.03-2.33-.06-4.67.08-7.58-.07-.19-.14-.38-.13-1.28-.04-.72-.08-1.43.13-3.02-.07-2.41-.13-4.83-.1-8.16-.03-5.32-.06-10.64.15-16.72-.09-.79-.17-1.57-.15-3.13-.02-1.03-.05-2.07.12-3.67-.06-.19-.12-.38-.09-1.41-.05-1.68-.1-3.36.1-5.92-.06-2.74-.13-5.49-.1-9.15-.03-5.32-.06-10.64.15-16.72-.08-.79-.16-1.58-.15-3.13-.03-1.03-.06-2.07.11-3.67-.06-.19-.12-.38-.09-1.43-.05-2-.11-4.01.08-6.88-.07-2.08-.13-4.17-.09-7.18-.03-10.99-.06-21.98.14-33.8-.07-1.42-.13-2.83-.12-5.07-.22-2.1-.44-4.19-.75-7.02-2.12-3.61-5.4-4.35-9.35-4.34-69.9.11-139.8.15-209.69.18-24.8,0-49.59-.1-74.39-.09-6.64,0-9.67,3.06-9.5,9.79.03.43.06.86-.1,1.83.06.18.13.36.11,1.47.07,15.99.14,31.99-.06,48.66.1.47.19.94.19,2.13.04.73.07,1.46-.16,2.87.09.47.19.93.17,2.24.04,1.7.09,3.4-.17,5.97.12,3.05.25,6.1.23,9.88.03.75.07,1.5-.2,2.9.1.46.2.93.17,2.31.05,17.01.09,34.03-.16,51.88Z"/>
    <path class="cls-48" d="m33.32,344c-1.95.3-4.12.31-6.75.32-.53-.67-.35-1.66-.71-1.94-4.94-3.82-4.54-9.68-4.56-14.63-.26-61.28-.24-122.56-.13-183.85.03-15.41.6-30.82.97-46.23.07-2.88.34-5.79,4.47-5.94.17,14.46,0,28.51-.26,42.97.03,1.48.13,2.55.22,3.63-.13,11.96-.35,23.91-.37,35.87-.05,33.4-.02,66.81-.37,100.98-.45,19.55-.58,38.34-.62,57.13,0,.65.8,1.31,1.23,1.96,2.22,3.15,4.43,6.3,6.88,9.73Z"/>
    <path class="cls-11" d="m90.12,120.08s-.23.33-.71.4c-.74.35-1,.62-1.26.9,0,0-.02-.07-.38-.05-.98.81-1.61,1.59-2.24,2.38-.14-.1-.27-.2-.59-.29-6.14-2.01-3.4,2.06-3.22,4.34,0,0-.04,0-.02.01-2.81,1.48-6.08,2.46-8.37,4.52-6.52,5.85-12.75,12.05-18.91,18.29-6.88,6.98-13.55,14.17-20.34,21.24-1.2,1.25-2.57,2.34-3.86,3.51-.39-.31-.79-.62-1.18-.94.84-1.34,1.48-2.89,2.56-4,8.23-8.38,16.58-16.64,24.84-25,7.87-7.95,15.64-15.99,23.52-23.94,3.41-3.44,6.97-6.72,10.85-9.8,1.03.74,1.67,1.19,2.31,2.15.42,1.77.84,3.03,1.26,4.29,0,0-.35.25-.88-.02-1.49.48-2.44,1.24-3.39,1.99Z"/>
    <path class="cls-44" d="m90.56,334.17c1,.26,1.99.51,3.43,1.23,1.67.94,2.9,1.43,4.13,1.91.33,2.36.66,4.73.96,7.5-9.02.45-18.03.49-27.5.5.51-2.78,1.48-5.52,2.49-8.63q.04-.36.47-.36c5.95,1.69,10.97-.34,16.02-2.14Z"/>
    <path class="cls-23" d="m26.9,138.31c-.42-1.06-.52-2.13-.21-3.62,2.32-2.13,4.31-3.77,6.12-5.6,12.13-12.24,24.21-24.52,36.62-36.94,1.43-2,2.56-3.86,3.69-5.71.46-.03.91-.05,1.79.1.42.18.84.26.84.26l.32-.33c.18-.02.35-.04.79-.02-.64,1.71-1.22,3.73-2.52,5.01-7.07,6.98-14.47,13.62-21.47,20.67-7.95,8-15.59,16.32-23.39,24.47-.64.67-1.5,1.12-2.58,1.7Z"/>
    <path class="cls-11" d="m69.12,115.31c-.63,1.13-1.04,2.46-1.91,3.34-11.61,11.7-23.27,23.34-34.95,34.97-.63.62-1.52.98-2.81.9,11.64-14.99,25.74-27.59,39.37-40.73.3.63.3,1.08.3,1.52Z"/>
    <path class="cls-44" d="m74.12,336.31c-1.62.91-4,1.43-4.73,2.81-2.66,5.04-6.6,5.93-12.68,4.57,6.1-7.88,13.76-12.84,21.96-17.78.42-.11.4-.07.15.25-1.74,3.59-3.22,6.87-4.7,10.15h0Z"/>
    <path class="cls-23" d="m69.46,115.28c-.34-.41-.34-.85-.34-1.63,6.9-7.47,13.79-14.6,21.15-22.18,1.27-1.96,2.09-3.47,2.91-4.98,0,0-.06-.17.29-.19,1.12.06,1.89.13,2.65.56,0,1.06,0,1.76,0,2.46-8.77,8.64-17.54,17.29-26.66,25.96Z"/>
    <path class="cls-23" d="m93.12,113.31c-.64-.45-1.28-.91-1.96-1.68,4.86-5.45,9.76-10.59,15.11-16.17,2.25-3.32,4.04-6.19,5.84-9.06,1.72-.01,3.44-.02,5.58.37-.58,1.61-1.5,2.89-2.58,4.02-5.31,5.53-10.66,11.02-16.25,16.69-.75,1.06-1.25,1.94-2.03,2.96-1.43,1.05-2.57,1.96-3.72,2.87Z"/>
    <path class="cls-10" d="m26.4,333.8c-.39-.19-1.19-.84-1.19-1.5.04-18.79.17-37.57.56-56.66.38,19.03.49,38.36.63,58.16Z"/>
    <path class="cls-11" d="m111.7,86.35c-1.38,2.92-3.18,5.79-5.28,8.81.03-2.55.36-5.25.7-8.35,1.39-.44,2.78-.47,4.58-.46Z"/>
    <path class="cls-11" d="m92.79,86.42c-.44,1.57-1.25,3.08-2.37,4.74-.3-1.2-.3-2.54-.31-4.29.77-.44,1.53-.47,2.68-.45Z"/>
    <path class="cls-23" d="m99.11,86.47c1.39-.06,2.78-.11,4.59-.12-.99.69-2.4,1.32-4.19,1.65-.39-.72-.39-1.13-.4-1.53Z"/>
    <path class="cls-11" d="m98.87,86.39c.25.49.25.9.25,1.61-.79.62-1.57.94-2.68,1.28-.32-.68-.32-1.38.02-2.5.78-.48,1.22-.54,1.67-.6.17.04.33.09.75.21Z"/>
    <path class="cls-64" d="m397.05,334.23c8.55-4.85,13.31-11.37,13.28-21.6-.2-55.79-.09-111.58-.24-167.37-.01-4.04-1.28-8.08-1.73-12.54,4.2-4.36,8.1-8.35,12.12-12.23,7.25-7.01,14.84-13.69,21.75-21.02,3.56-3.78,5.96-8.67,8.89-13.05,4.2-.88,4.05,1.81,4.05,4.7-.05,50.58-.05,101.16-.08,151.75-.02,33.78-.07,67.55-.13,101.78-16.98.53-33.94.6-51.37.66,3.58-4.9,7.63-9.77,11.67-14.66.6-.73,1.14-1.51,1.71-2.27-.39-.38-.77-.76-1.16-1.14-2.36,2.58-4.84,5.06-7.06,7.76-3.68,4.49-8.42,4.4-11.71-.77Z"/>
    <path class="cls-28" d="m450.66,86.37c-2.46,4.44-4.86,9.32-8.43,13.1-6.91,7.33-14.49,14.01-21.75,21.02-4.01,3.88-7.92,7.87-12.24,11.86-1.21-1.12-2.06-2.3-3.07-3.99-.31-.8-.55-.98-.86-1.05-.39-.4-.79-.8-1.1-1.83.54-4.78,3.42-6.45,6.84-8.19,2.42-1.23,4.22-3.77,6.11-5.9.96-1.08,1.23-2.81,2.26-3.78,5.87-5.54,11.96-10.86,17.76-16.47,1.11-1.07,1.31-3.09,1.92-4.67,4.02-.05,8.05-.1,12.53-.1Z"/>
    <path class="cls-64" d="m437.79,86.41c-.28,1.64-.48,3.66-1.59,4.73-5.81,5.61-11.89,10.93-17.76,16.47-1.03.97-1.3,2.7-2.26,3.78-1.89,2.13-3.69,4.67-6.11,5.9-3.42,1.73-6.3,3.41-6.91,7.91-.67.02-1.19-.3-1.92-1.08-.37-.67-.58-.8-.85-.85-.32-.18-.65-.37-1.1-1.04-.13-.49-.17-.97-.11-1.3,3.54-3.77,6.91-7.32,10.54-10.6,3.53-3.19,7.85-5.64,10.85-9.23,3.71-4.44,6.42-9.72,9.56-14.64,1.72-.06,3.43-.13,5.57-.25.87,0,1.32.08,2.1.2Z"/>
    <path class="cls-18" d="m69.12,92.31c-12.1,12.27-24.19,24.55-36.31,36.79-1.81,1.82-3.8,3.46-6.05,5.2-.16-14.05.02-28.1.23-42.57.13-.56.23-.71.68-1.27,1.33-1.13,2.31-1.86,3.45-2.28.79-.38,1.42-1.07,2.51-1.79,6.8,0,13.14.02,19.48.41-1.23,2.02-2.3,3.83-3.71,5.32-5.91,6.23-11.96,12.33-17.86,18.57-.67.71-.77,1.95-1.41,3.7,1.34-.59,2.02-.7,2.41-1.09,6.84-6.78,13.77-13.48,20.36-20.49,1.4-1.49,1.52-4.19,2.65-6.38,2.14-.13,3.86-.21,5.58-.29,2.7.07,5.4.13,8.53.63.11,2.13-.21,3.84-.54,5.55Z"/>
    <path class="cls-28" d="m429.87,86.36c-2.89,5-5.6,10.28-9.31,14.73-3,3.59-7.32,6.04-10.85,9.23-3.62,3.27-7,6.83-10.8,10.61-.5.37-.68.39-.85.4-2.11-1.01-4.21-2.02-6.84-3.38-.89-.4-1.26-.44-1.63-.49-.25,0-.49.01-.52-.44,3.36-3.58,6.61-6.6,9.62-9.84,2.3-2.48,4.3-5.24,6.78-7.91,2.52-2.25,4.84-4.33,6.81-6.71,1.51-1.82,2.58-4.01,4.31-6.09,4.48-.16,8.51-.25,12.54-.35.17.05.33.1.75.24Z"/>
    <path class="cls-28" d="m195.11,117.25c-.44.05-.88.11-1.77-.13-.65-.55-.91-.72-1.18-1.17,1.3-2.24,2.32-4.35,3.88-5.96,5.72-5.93,11.73-11.59,17.36-17.6,1.41-1.51,1.85-3.93,3.07-5.98.78-.13,1.22-.21,1.66-.28,4.36.06,8.71.11,13.53.59.11,1.65.13,3.25-.66,4.05-5.22,5.29-10.68,10.33-15.91,15.61-3.14,3.16-5.99,6.6-9.42,9.92-3.82.32-7.19.64-10.55.96Z"/>
    <path class="cls-28" d="m380.12,86.13c3.36.06,6.72.13,10.54.61.2,1.52.31,2.96-.36,3.66-6.09,6.43-12.31,12.73-18.49,19.06-2.23,2.28-4.46,4.55-7.16,6.83-4.48,0-8.5,0-12.49-.35,1.41-2.35,2.56-4.56,4.21-6.31,6.16-6.53,12.49-12.9,19.1-19.39.78-1.29,1.22-2.52,2.03-3.81,1.12-.14,1.87-.23,2.62-.31Z"/>
    <path class="cls-66" d="m99.12,107.31c5.34-5.5,10.69-10.99,16-16.52,1.08-1.12,2-2.4,3-3.96,3.7-.39,7.39-.44,11.54-.02.46,1.8.46,3.15.32,4.8-7.72,7.77-15.28,15.23-23.18,22.73-1.44.68-2.56,1.32-4.06,1.97-1.8.34-3.21.69-4.62,1.03-1.04.28-2.07.55-3.41.8-.73-1.29-1.15-2.55-1.57-4.32,1.14-1.42,2.28-2.33,4.05-3.38,1.06-1.14,1.51-2.13,1.95-3.13Z"/>
    <path class="cls-28" d="m176.11,117.21c-.75.06-1.5.11-2.73-.12-.69-.53-.95-.7-1.22-1.14,7.55-8.48,15.09-16.6,22.56-24.78,1.3-1.42,2.28-3.14,3.41-4.71,4.36-.09,8.72-.17,13.78-.22.87.09,1.04.14,1.2.55-.59,1.5-.92,2.9-1.8,3.74-6.91,6.7-13.98,13.24-20.86,19.97-1.7,1.66-2.91,3.84-4.79,5.79-3.48.32-6.52.62-9.55.93Z"/>
    <path class="cls-28" d="m367.11,86.09c.75.04,1.5.08,2.88.16.79.09.96.15,1.12.58,0,1.41,0,2.44-.15,3.78-5.21,4.94-10.94,9.05-15.09,14.38-2.91,3.73-8.82,5.29-9.23,11.28-5.48,0-10.5,0-15.47-.34,8.68-9.11,17.32-17.87,26.29-26.68.78-.96,1.23-1.88,2.11-2.85,2.81-.14,5.18-.23,7.55-.32Z"/>
    <path class="cls-28" d="m317.11,117.19c-1.07.05-2.13.11-3.72-.12-.72-.52-.98-.69-1.24-1.13,7.23-8.05,14.48-15.68,21.55-23.49,1.5-1.66,2.3-3.97,3.88-6.04,3.84-.17,7.22-.28,10.6-.39.14.29.35.52.78,1.25-.51,2.72-1.18,4.88-1.99,7.34-7.05,6.77-13.95,13.23-21.17,19.74-.77.67-1.23,1.3-2.1,1.93-2.47.31-4.53.61-6.59.91Z"/>
    <path class="cls-53" d="m161.06,86.48c1.08-.05,2.16-.1,3.65.31-.26,3.81-.93,7.16-1.7,10.73-.31.49-.57.68-1.21.83-.77.68-1.23,1.32-1.83,2.26-4.38,4.43-8.62,8.57-13.17,12.74-.77.68-1.23,1.32-1.68,2.2,0,.24,0,.73-.46.74-3.48,0-6.51,0-9.54-.39,0-1.46,0-2.53.15-3.89,7.05-7.43,13.95-14.57,21.21-21.7,1.12-.67,1.88-1.33,2.95-2.02.75-.62,1.19-1.21,1.64-1.8Z"/>
    <path class="cls-28" d="m182.12,86.43c2.7-.04,5.4-.08,8.54.29.09,1.31-.03,2.42-.64,3.09-4.63,5.12-9.32,10.19-14.05,15.22-3.57,3.8-7.24,7.51-11.24,11.27-1.12,0-1.87,0-2.58-.35,2.27-3.17,4.5-5.99,7.63-9.94-3.53-.28-6.1-.48-8.52-.99,4.38-4.77,8.62-9.23,13.16-13.85,1.1-1.65,1.91-3.16,3.04-4.73.77-.13,1.22-.2,1.66-.26.17.05.33.1.8.5.62.64.94.93,1.26,1.22.31-.49.63-.97.94-1.46Z"/>
    <path class="cls-35" d="m138.08,86.21c1.73.05,3.45.09,5.62.58.43,3.8.43,7.16.31,10.74-.31.49-.57.68-1.26.79-1.41.43-2.6.67-3.47,1.32-3.77,2.82-7.45,5.77-11.5,8.71-1.45,1.35-2.55,2.65-3.77,4.18-.31.49-.57.68-1.28.77-5.37-1.97-.75-5.4-1.46-8.29,5.05-5.43,9.95-10.57,15.18-15.75.8-.94,1.27-1.82,1.72-2.8-.03-.09-.09-.26-.09-.26Z"/>
    <path class="cls-37" d="m248.11,86.04c1.45-4.45,5.16-4.53,8.88-4.58,3.58-.04,7.16-.18,10.74-.04,4.62.18,9.26,1.02,13.85.79,8.41-.41,16.78-.63,25.06,1.16,1.5.32,2.86,1.32,4.38,2.45.09.45.16.63-.31.57-5.54.25-10.6.55-16.03.87-1.1.05-1.83.09-2.97.05-5.47-.34-10.52-.59-15.94-.91-1.78.14-3.19.34-4.99.39-5.14-.21-9.9-.27-15.05-.39-1.47-.04-2.54-.02-4.01-.04-1.47-.14-2.54-.23-3.6-.32Z"/>
    <path class="cls-21" d="m247.66,86.12c1.52.01,2.59.1,4.05.6-4.6,5.8-9.6,11.2-14.74,16.26-1.27-5.35-5.23-4.67-8.71-4.96,2.52-4.2,8.3-5.76,7.86-11.58,3.69-.08,7.38-.15,11.53-.31Z"/>
    <path class="cls-37" d="m53.11,86.45c-6.34-.03-12.68-.07-19.78-.07-1.3.52-1.83,1.02-2.37,1.51-.98.72-1.96,1.44-3.19,2.33-1.97-1.92-3.7-4.02-5.42-6.11,2.33-1.26,4.66-2.53,7.38-3.79,1.96,1,3.52,2.83,5.09,2.84,5.82.05,11.64-.7,17.47-.73,3.13-.02,7.1-1.62,8.83,3.33-1.7.46-3.42.53-5.89.61-1.21.02-1.65.05-2.1.08Z"/>
    <path class="cls-23" d="m165.11,116.29c3.62-3.75,7.29-7.47,10.86-11.27,4.73-5.03,9.42-10.1,14.05-15.22.61-.67.73-1.78,1.09-3.04,2.05-.38,4.1-.4,6.58-.36-.69,1.64-1.68,3.35-2.97,4.77-7.47,8.18-15.01,16.3-22.99,24.79-2.52.34-4.56.34-6.61.33Z"/>
    <path class="cls-23" d="m143.12,98.31c.32-.11.58-.29,1.18-.92,1.54-1.6,2.68-2.84,4.13-4.23,1.77-2.34,3.23-4.54,4.69-6.73,1.72-.06,3.43-.12,5.92-.18,1.23-.05,1.68-.09,2.14-.13,0,0-.06.18-.08.27-.47.68-.92,1.26-1.99,1.91-1.41.71-2.2,1.36-2.98,2.01-6.9,7.13-13.8,14.27-21.17,21.86-1.86,1.55-3.26,2.63-4.65,3.72-1.5.17-2.99.34-4.79.09.3-1.16.84-1.96,1.53-2.6,5.35-5.04,10.72-10.05,16.08-15.06Z"/>
    <path class="cls-50" d="m365.11,116.29c2.23-2.28,4.47-4.55,6.7-6.83,6.18-6.33,12.4-12.63,18.49-19.06.67-.71.56-2.14.81-3.61.45-.44.89-.5,2.05-.56,1.46.09,2.21.18,2.96.63-.5,1.7-.64,3.38-1.54,4.32-5.21,5.45-10.73,10.61-15.86,16.13-2.52,2.71-4.43,5.98-7.05,9-2.48,0-4.52,0-6.57-.02Z"/>
    <path class="cls-23" d="m235.73,86.37c.84,5.88-4.94,7.44-7.76,11.79-5.58,6.34-10.71,12.24-16.27,18.14-2.15,0-3.86,0-5.58-.01,2.98-3.32,5.84-6.75,8.97-9.92,5.23-5.28,10.7-10.32,15.91-15.61.79-.8.77-2.4,1.12-4.01,1.07-.4,2.14-.42,3.61-.39Z"/>
    <path class="cls-50" d="m326.12,114.31c6.9-6.47,13.8-12.94,21.16-19.85,2.02-2.57,6.16-3.62,3.39-7.54,1.23-.24,2.46-.48,4.4-.7,1.16.09,1.61.16,2.06.59,0,1.07,0,1.79,0,2.5-8.64,8.76-17.28,17.53-26.37,26.64-1.85.34-3.24.34-4.63,0,0-.77,0-1.2,0-1.64Z"/>
    <path class="cls-37" d="m348.1,85.68c-3.3.45-6.68.56-10.95.67-2.94.03-4.98.07-7.48.04-4.15.18-7.86.42-11.89.64-.78,0-1.22.01-2.01-.01-1.05-.1-1.75-.15-2.48-.38-.03-.18-.12-.54-.12-.54,2.19-4.17,5.67-5.15,11.76-2.92,2.52.93,4.8,1.77,7.12-.27.23-.21.6-.35.91-.37,5.25-.33,10.28.61,15.15,3.14Z"/>
    <path class="cls-37" d="m396.13,86.49c-.75-.08-1.51-.16-2.63-.32,1.51-1,3.36-2.67,5.27-2.74,8.4-.29,16.81-.24,25.21-.03,1.68.04,3.34,1.29,5.07,2.35-3.96.47-7.98.56-12.81.68-1.9.28-3,.55-4.39.52-5.44-.35-10.58-.4-15.72-.45Z"/>
    <path class="cls-28" d="m163.12,97.31c.67-3.35,1.33-6.7,2-10.45,2.04-.44,4.08-.48,6.56-.07.44,1.47.44,2.5.13,3.66-3.1,2.38-5.9,4.62-8.69,6.86Z"/>
    <path class="cls-37" d="m357.12,86.45c-.45-.07-.9-.14-1.68-.29.15-4.18,2.83-4.23,5.83-3.25,1.96.64,3.8,1.66,5.77,2.84-2.29.43-4.66.51-7.8.6-1.22.03-1.66.06-2.11.1Z"/>
    <path class="cls-49" d="m148.12,93.31c-1.14,1.24-2.28,2.48-3.71,3.86-.28-3.22-.27-6.58-.28-10.34,1.38-.43,2.77-.47,4.57-.08.08,2.48-.25,4.51-.58,6.55Z"/>
    <path class="cls-37" d="m371.11,86.46c-.17-.05-.34-.11-.75-.26,2.69-4.74,5.79-4.94,9.7-.41-.7.42-1.45.51-2.9.59-1.15.03-1.6.06-2.38.04-.78-.02-1.23,0-2.01-.02-.78-.01-1.22.02-1.67.06Z"/>
    <path class="cls-11" d="m148.42,93.16c.03-1.89.36-3.93.69-6.35,1.07-.42,2.14-.45,3.6-.43-1.07,2.25-2.53,4.44-4.3,6.78Z"/>
    <path class="cls-23" d="m172.12,90.31c0-1.03,0-2.06,0-3.47.16-.44.33-.5,1.15-.57,1.72.07,2.79.15,3.87.23-.8,1.51-1.6,3.01-2.88,4.42-1.02-.27-1.58-.44-2.13-.61Z"/>
    <path class="cls-11" d="m350.41,86.92c3.02,3.92-1.12,4.97-2.99,7.24.37-2.01,1.03-4.17,1.72-6.74.35-.44.69-.46,1.27-.5Z"/>
    <path class="cls-37" d="m213.11,86.43c-.17-.05-.34-.1-.75-.26,1.34-3.91,3.32-3.91,5.7-.39-.39.42-.83.49-1.98.56-1.46.02-2.22.06-2.97.09Z"/>
    <path class="cls-37" d="m177.46,86.43c-1.4-.02-2.47-.1-3.94-.25,1.17-3.95,3.15-3.97,5.55-.36-.39.41-.83.48-1.61.61Z"/>
    <path class="cls-37" d="m132.17,86.12c1.55-3.96,3.53-3.89,5.88-.26.04.35.1.52-.25.53-1.11.04-1.86.07-3,.05-1.15-.03-1.92,0-2.67-.05.02-.09.05-.27.05-.27Z"/>
    <path class="cls-11" d="m69.42,92.16c.02-1.56.35-3.27.69-5.35.76-.41,1.51-.44,2.63-.42-.76,1.91-1.89,3.76-3.32,5.77Z"/>
    <path class="cls-37" d="m98.07,85.84c-.4.4-.84.47-1.62.59-1.1-.01-1.87-.09-3.01-.23.87-3.47,2.46-4.17,4.63-.36Z"/>
    <path class="cls-11" d="m130.12,91.31c0-1.35,0-2.7,0-4.44.46-.47.91-.54,1.71-.68.34-.07.31.11.44.46-.63,1.79-1.39,3.22-2.15,4.66Z"/>
    <path class="cls-11" d="m312.81,86.16c.35-.06.44.3.4.85-.72,1.47-1.41,2.39-2.09,2.91.02-1.41.04-2.44.05-3.46,0,0-.07-.18-.09-.28.45-.05.91,0,1.73-.03Z"/>
    <path class="cls-23" d="m181.79,86.38c.02.53-.3,1.02-.61,1.51-.32-.29-.64-.58-1.01-1.15.4-.32.84-.37,1.62-.36Z"/>
    <path class="cls-37" d="m161.11,85.85c-.39.32-.85.36-1.65.35.3-.24.94-.43,1.65-.35Z"/>
    <path class="cls-11" d="m75.84,86.45c.23.04-.09.37-.09.37,0,0-.42-.08-.5-.21-.08-.13.37-.2.6-.16Z"/>
    <path class="cls-38" d="m330.82,378.92c-2.49.13-5.25,0-8.37-.31,2.46-.1,5.28-.02,8.37.31Z"/>
    <path class="cls-38" d="m202.95,378.14c-.98.4-2.17.51-3.61.46.97-.36,2.19-.55,3.61-.46Z"/>
    <path class="cls-38" d="m175.9,378.12c-1.49.37-3.22.44-5.37.39,1.43-.31,3.28-.5,5.37-.39Z"/>
    <path class="cls-38" d="m215.91,378.12c-1.18.36-2.58.43-4.4.39,1.12-.3,2.65-.49,4.4-.39Z"/>
    <path class="cls-38" d="m295.95,378.12c-.58.34-1.34.42-2.47.38.52-.29,1.41-.47,2.47-.38Z"/>
    <path class="cls-38" d="m254.95,378.13c-.58.34-1.34.42-2.47.37.52-.29,1.41-.46,2.47-.37Z"/>
    <path class="cls-38" d="m157.99,378.88c-.05.19-.21.26-.61.28-.09-.42.16-.54.61-.28Z"/>
    <path class="cls-33" d="m451.89,461.99c-1.32.06-2.39-.13-3.46-.32.51-1.83.82-3.76,1.64-5.43.23-.46,2.67-.56,2.89-.16.54.97.55,2.35.41,3.53-.08.75-.8,1.42-1.49,2.38Z"/>
    <path class="cls-33" d="m260.81,467.84c.25-.85.75-1.48,1.24-2.11.29.31.57.62.86.94-.62.46-1.24.93-2.1,1.18Z"/>
    <path class="cls-40" d="m157.14,336.76c4.76-.5,9.56-.74,14.36-.74,59.24-.02,118.49,0,178.18.15-1.18.8-2.81,2.02-4.45,2.04-12.65.16-25.32-.1-37.97.18-5.89.13-11.75,1.41-17.64,1.73-3.23.17-6.52-.56-9.78-.94-1.95-.23-3.92-.91-5.84-.81-9.83.54-19.85,2.84-29.44,1.64-28.51-3.59-57.04-.53-85.99-1.7-.78-.39-1.1-.77-1.45-1.54Z"/>
    <path class="cls-40" d="m120.19,336.77c10.36-.49,20.81-.61,31.64-.56-.47.79-1.31,1.95-2.17,1.96-9.27.12-18.55.08-27.82,0-.52,0-1.04-.67-1.66-1.4Z"/>
    <path class="cls-7" d="m457.5,385.31c-.37-1.06-.38-2.13-.38-3.6,1.58-1.14,3.13-1.94,4.74-2.61,1.24-.52,2.55-.88,4.05-1.05-.61,4.86-4.81,5.48-8.41,7.26Z"/>
    <path class="cls-7" d="m457.5,425.31c-.37-1.06-.37-2.13-.38-3.6,3.02-1.95,6.04-3.49,9.06-5.04l1.07,1.08c-1.87,3.74-5.08,6.18-9.75,7.56Z"/>
    <path class="cls-7" d="m457.49,445.31c-.37-.74-.37-1.5-.37-2.62,1.9-2.17,3.8-3.97,5.85-6.07,1.39-.14,2.63.01,3.87.17.29.54.58,1.08.87,1.62-3.28,2.3-6.57,4.6-10.21,6.91Z"/>
    <path class="cls-40" d="m384.19,336.5c.08-.24.25-.31.69-.28-.02.21-.31.33-.69.28Z"/>
    <path class="cls-58" d="m390.09,336.25c.53-.36,1.43-.65,2.69-.91-.53.34-1.42.66-2.69.91Z"/>
    <path class="cls-40" d="m98.43,337.27c-1.54-.45-2.77-.94-4.18-1.7,1.64-.1,3.46.08,5.6.47-.16.54-.64.87-1.43,1.23Z"/>
    <path class="cls-8" d="m301.13,435.34c-.17.02-.34.04-1.06-.28-1.69-.48-2.83-.73-3.98-.73-44.57-.03-89.13-.04-133.7,0-1.41,0-2.82.56-4.22.86-.7-.98-1.98-1.95-2-2.94-.14-12.12-.09-24.25-.09-37.07,48.3,0,96.19,0,144.54.53.5,13.2.53,25.87.54,38.82-.03.45-.03.63-.04.81Z"/>
    <path class="cls-70" d="m301.19,434.27c-.03-12.67-.07-25.34-.1-38.49,8.29-.49,16.59-.64,24.87-.41,1.43.04,4.03,1.68,4.04,2.6.1,12.24-.16,24.48-.97,36.69-9.71-.15-18.77-.27-27.84-.39Z"/>
    <path class="cls-39" d="m158.63,435.29c.95-.4,2.36-.96,3.77-.96,44.57-.04,89.13-.03,133.7,0,1.14,0,2.28.25,3.72.68-46.71.32-93.72.35-141.19.28Z"/>
    <path class="cls-1" d="m353.93,424.98c-2.04.38-4.03.37-6.45.37-.46-1.72-.48-3.45,0-5.61,1.73-.5,2.94-.56,4.16-.63.56.44,1.13.89,1.94,1.44.3,1.42.35,2.73.35,4.43Z"/>
    <path class="cls-13" d="m347.07,403.75c1.25-.26,2.48-.06,3.95.42.21,2.62.17,4.96-.31,7.72-1.49.43-2.53.43-3.57.43-.03-2.7-.06-5.41-.07-8.56Z"/>
    <path class="cls-59" d="m347.09,412.75c1.09-.44,2.13-.43,3.56-.43.55,1.99.72,3.97.94,6.37-1.16.49-2.38.55-4.05.62-.47-2.04-.48-4.08-.45-6.56Z"/>
    <path class="cls-65" d="m301.17,434.54c9.09-.15,18.15-.04,27.51.34-8.67.35-17.64.44-27.08.5-.46-.21-.46-.39-.43-.84Z"/>
    <path class="cls-63" d="m394.85,230.37c.05,1.68.1,3.36-.06,5.56-.25.64-.37.8-.33.87.11.21.28.39.43.58.02,1.03.05,2.07-.19,3.7-.11,1.5.03,2.4.18,3.3.03,5.32.06,10.64-.2,16.72-.15,3.27,0,5.77.13,8.27.04.72.08,1.43-.08,2.61-.08.77.03,1.09.15,1.4.03,2.33.06,4.67-.17,7.65-.12,1.54.03,2.44.18,3.35.04,5.65.07,11.3-.18,17.73-.12,3.6.04,6.44.21,9.27.44,12.89,1.14,11.01-10.57,11.03-95.1.17-190.21.23-285.31.32-7.2,0-7.69-.46-7.4-8.1.15-1.16.04-1.76-.08-2.35-.01-4.34-.02-8.69.23-13.84.14-5.25.01-9.68-.11-14.11-.05-1.39-.09-2.78.11-4.89.13-2.86,0-4.99-.12-7.12-.05-17.01-.09-34.03.09-51.67.12-1.2.01-1.77-.1-2.35-.03-.75-.07-1.5.15-2.95.11-3.82-.05-6.93-.2-10.05-.04-1.7-.09-3.4.11-5.68.11-1.17,0-1.75-.13-2.33-.04-.73-.07-1.46.12-2.72.1-1.11-.03-1.7-.16-2.28-.07-15.99-.14-31.99,0-48.54.09-.86-.01-1.16-.12-1.46-.03-.43-.06-.86.18-1.91.63-4.04,3.25-3.06,5.22-3.06,96.4,0,192.81.05,289.21.02,2.77,0,5.55-.74,8.32-1.14.22,2.1.44,4.19.41,6.97-.12,2.19,0,3.7.14,5.22.03,10.99.06,21.98-.2,33.73-.15,2.93,0,5.11.13,7.29.05,2,.11,4.01-.05,6.55-.25.65-.37.81-.33.88.11.21.28.39.43.58.03,1.03.06,2.07-.18,3.69-.12,1.5.03,2.4.17,3.3.03,5.32.06,10.64-.2,16.73-.14,3.6,0,6.44.14,9.27Z"/>
    <path class="cls-47" d="m394.34,135.81c-2.73.76-5.5,1.5-8.28,1.51-96.4.03-192.81-.02-289.21-.02-1.97,0-4.59-.98-5.18,2.74-.49-5.78,2.55-8.84,9.19-8.84,24.8,0,49.59.1,74.39.09,69.9-.02,139.8-.06,209.69-.18,3.95,0,7.23.73,9.39,4.71Z"/>
    <path class="cls-28" d="m396.13,86.86c5.15-.32,10.29-.26,15.68.44-2.4,4.1-5.04,7.56-7.99,11.16-4.6,4.05-9.12,7.75-13.1,11.97-1.46,1.55-1.61,4.32-2.36,6.53-3.45.15-6.91.3-11.07.1-2.2-.48-3.69-.62-5.18-.76,2.18-3.02,4.1-6.29,6.61-8.99,5.13-5.52,10.65-10.68,15.86-16.13.9-.94,1.04-2.62,1.54-4.32Z"/>
    <path class="cls-11" d="m330.11,86.45c2.05-.04,4.09-.07,6.57-.05-.69,2.07-1.48,4.38-2.98,6.04-7.06,7.81-14.32,15.45-21.55,23.71-.04.57-.05,1.01-.05,1.01-.75.04-1.5.08-2.85-.19-1.44-.45-2.29-.59-3.09-1.07,4.07-4.79,8.27-9.09,12.07-13.72,4.16-5.08,7.94-10.48,11.89-15.74Z"/>
    <path class="cls-29" d="m237.12,103.31c5-5.4,9.99-10.79,14.99-16.54,1.08-.38,2.15-.4,3.62,0-.54,2.24-1.14,4.38-2.49,5.8-5.68,5.96-11.68,11.62-17.35,17.58-1.62,1.7-2.53,4.08-3.78,6.38,0,.23-.02.69-.02.69-.44.05-.89.1-1.88-.18-1.4-.47-2.25-.62-3.1-1.12,3.34-4.45,6.67-8.53,10-12.61Z"/>
    <path class="cls-23" d="m213.11,86.78c.76-.39,1.51-.42,2.64-.39-.51,2.06-.95,4.48-2.36,5.99-5.64,6.01-11.64,11.67-17.36,17.6-1.55,1.61-2.57,3.73-3.88,6.19-.04.58-.05,1.05-.05,1.05-.45.05-.89.09-1.91-.2-1.74-.48-2.91-.62-4.08-.75,1.43-1.94,2.64-4.11,4.34-5.78,6.88-6.73,13.95-13.27,20.86-19.97.87-.85,1.21-2.24,1.8-3.74Z"/>
    <path class="cls-27" d="m171.81,90.45c.86.04,1.42.21,2.14.62-4.07,4.71-8.3,9.18-12.98,14.09-3.25,4.01-6.05,7.58-8.85,11.37,0,.23-.01.69-.01.69-.45.05-.89.1-1.94-.2-2.08-.47-3.57-.6-5.06-.73,0,0,0-.49.33-.78.78-.93,1.23-1.56,1.68-2.2,4.23-4.13,8.47-8.26,13.17-12.74.92-.98,1.38-1.62,1.83-2.26.32-.11.58-.29.89-.78,2.9-2.46,5.7-4.7,8.8-7.08Z"/>
    <path class="cls-23" d="m129.97,91.61c.9-1.73,1.66-3.17,2.28-4.87.62-.3,1.39-.33,2.67-.03.74,1.09.97,1.85,1.2,2.6-4.9,5.13-9.8,10.27-15.15,15.85-3.25,4.01-6.04,7.58-9.14,11.17-.5.04-.7.05-.9.07-1.05.33-2.09.66-3.47.54-.33-1.18-.33-1.9-.33-2.63,7.57-7.47,15.14-14.93,22.85-22.7Z"/>
    <path class="cls-54" d="m152.12,116.3c2.8-3.57,5.6-7.13,8.7-10.85,2.87.06,5.44.26,8.97.54-3.13,3.95-5.36,6.77-8.03,9.95-2.17.67-3.91.98-5.64,1.29-.75.06-1.5.11-2.74-.12-.69-.54-.95-.71-1.26-.81Z"/>
    <path class="cls-18" d="m74.55,336.31c1.05-3.28,2.54-6.56,4.29-10.16,3.92,2.27,7.56,4.87,11.47,7.75-4.79,2.08-9.8,4.11-15.76,2.42Z"/>
    <path class="cls-30" d="m388.4,116.93c.72-2.18.87-4.96,2.33-6.5,3.97-4.22,8.49-7.92,13.31-11.86.79.16.98.42,1.09.74-2.14,2.63-4.14,5.39-6.44,7.87-3.01,3.24-6.26,6.27-9.84,9.54-.43.15-.42.18-.45.21Z"/>
    <path class="cls-55" d="m232.56,117.33c-.46-.11-.45-.57.02-.79,4.82-.23,9.18-.24,13.95-.24,1.81,0,3.2,0,5.06,0,5.15,0,9.84-.02,14.95-.02,2.14.01,3.86.02,6.04.02,4.48,0,8.51-.01,12.96-.01,2.15,0,3.87,0,5.92,0,.78,0,1.22,0,2.13,0,4.49,0,8.51-.02,12.53-.03.84.14,1.69.27,2.76.64-25.13.33-50.5.44-76.32.43Z"/>
    <path class="cls-3" d="m112.12,116.31c2.8-3.57,5.6-7.13,8.7-10.85,1.16,2.44-3.46,5.87,1.92,8.19.78,1.16,1.18,1.95,1.57,2.75-3.11.34-6.21.68-9.94.7-1.16-.48-1.7-.64-2.24-.79Z"/>
    <path class="cls-49" d="m124.51,116.4c-.6-.79-.99-1.59-1.39-2.74.32-.46.58-.65,1.23-1.17,1.56-1.56,2.66-2.87,3.77-4.18,3.71-2.9,7.39-5.85,11.16-8.67.87-.65,2.06-.89,3.47-1.32-5,5.01-10.37,10.02-15.71,15.06-.69.65-1.23,1.45-1.88,2.52-.04.34-.43.52-.65.51Z"/>
    <path class="cls-55" d="m371.68,116.31c1.93.13,3.42.27,5.18.67-19.43.31-39.13.36-59.28.32,1.6-.4,3.65-.7,6.46-1,1.19,0,1.63,0,2.08-.01,1.39,0,2.79.01,4.6.02,5.43,0,10.45,0,16.35,0,2.28,0,3.67,0,5.07,0,4.02,0,8.04,0,12.53,0,2.51,0,4.55,0,7.03.01Z"/>
    <path class="cls-55" d="m227.11,116.28c.85.14,1.7.28,2.78.67-11.14.33-22.5.42-34.32.4,2.91-.42,6.27-.74,10.09-1.06,2.17,0,3.89,0,6.5.01,5.58,0,10.27-.01,14.95-.02Z"/>
    <path class="cls-55" d="m144.66,116.29c1.94.12,3.43.25,5.18.64-6,.22-12.28.2-18.36-.22,1.34-.4,2.49-.4,3.64-.41,3.03,0,6.06,0,9.54,0Z"/>
    <path class="cls-55" d="m156.57,117.33c1.28-.41,3.01-.72,5.15-1.03,1.15,0,1.9,0,3.02,0,2.42,0,4.46,0,6.95,0,.74.09,1,.26,1.33.7-5.25.28-10.61.35-16.44.33Z"/>
    <path class="cls-18" d="m81.96,127.58c-.43-2.09-3.17-6.17,3.17-3.99-.72,1.36-1.82,2.59-3.17,3.99Z"/>
    <path class="cls-47" d="m91.54,284.74c.28,3.99.41,8.43.34,13.21-.3-4.02-.4-8.4-.34-13.21Z"/>
    <path class="cls-55" d="m185.66,116.28c1.61.13,2.78.26,4.19.65-4.11.33-8.47.41-13.29.39,2.58-.41,5.62-.72,9.1-1.04Z"/>
    <path class="cls-49" d="m135.12,115.9c-1.15.4-2.3.41-3.88.42-.43,0-.76-.13-.85-.28,1.3-1.23,2.7-2.32,4.41-3.57.32.9.32,1.97.32,3.43Z"/>
    <path class="cls-47" d="m91.49,205.72c.3,2.68.45,5.79.41,9.24-.31-2.71-.43-5.76-.41-9.24Z"/>
    <path class="cls-47" d="m395.05,310.93c-.28-2.39-.45-5.22-.38-8.36.32,2.43.41,5.17.38,8.36Z"/>
    <path class="cls-47" d="m394.97,229.93c-.26-2.39-.41-5.22-.31-8.36.3,2.43.37,5.17.31,8.36Z"/>
    <path class="cls-11" d="m106.79,114.34c.33.7.33,1.42.33,2.51-1.07.42-2.14.49-3.61.23-.39-.32-.39-.77-.39-.77,1.12-.65,2.23-1.29,3.67-1.97Z"/>
    <path class="cls-47" d="m394.95,268.94c-.26-2.06-.4-4.57-.31-7.37.3,2.11.37,4.52.31,7.37Z"/>
    <path class="cls-18" d="m90.41,120.04c.66-.71,1.62-1.46,2.89-1.95-.65.81-1.63,1.36-2.89,1.95Z"/>
    <path class="cls-47" d="m394.99,188.94c-.26-1.75-.4-3.93-.31-6.39.3,1.79.37,3.88.31,6.39Z"/>
    <path class="cls-47" d="m91.53,272.72c.28,1.71.4,3.85.34,6.29-.29-1.75-.39-3.81-.34-6.29Z"/>
    <path class="cls-18" d="m102.73,116.31c.39,0,.39.45.39.67-1.39.32-2.79.42-4.59.44,1-.43,2.41-.77,4.21-1.12Z"/>
    <path class="cls-47" d="m395.05,147.95c-.25-1.1-.38-2.62-.3-4.4.28,1.15.35,2.57.3,4.4Z"/>
    <path class="cls-18" d="m85.8,123.58c.36-.65.99-1.44,2-2.23-.32.7-1.03,1.39-2,2.23Z"/>
    <path class="cls-47" d="m395.03,204c-.27-.52-.41-1.43-.34-2.54.3.58.38,1.37.34,2.54Z"/>
    <path class="cls-11" d="m111.82,116.33c.84.13,1.39.29,2.1.67-.78.17-1.73.12-2.84-.27.04-.35.24-.37.74-.4Z"/>
    <path class="cls-47" d="m395.01,244c-.27-.52-.41-1.42-.35-2.53.3.58.38,1.36.35,2.53Z"/>
    <path class="cls-47" d="m395.02,283.99c-.26-.52-.41-1.42-.34-2.53.3.58.38,1.36.34,2.53Z"/>
    <path class="cls-47" d="m91.44,312.6c.25.26.37.85.28,1.6-.27-.32-.35-.79-.28-1.6Z"/>
    <path class="cls-47" d="m91.52,218.62c.26.24.37.82.31,1.55-.27-.3-.37-.76-.31-1.55Z"/>
    <path class="cls-47" d="m91.48,197.61c.26.25.38.83.32,1.57-.27-.3-.37-.77-.32-1.57Z"/>
    <path class="cls-47" d="m91.45,192.6c.26.24.39.83.34,1.58-.28-.3-.38-.77-.34-1.58Z"/>
    <path class="cls-18" d="m88.43,121.32c-.03-.22.23-.49.77-.83.03.21-.23.49-.77.83Z"/>
    <path class="cls-55" d="m389.77,117.7c.19-.19.56-.14,1.13.1-.18.18-.56.15-1.13-.1Z"/>
    <path class="cls-55" d="m312.35,117.26c-.26-.09-.25-.53-.24-.75.31-.13.56.04.89.48-.05.25-.22.3-.65.27Z"/>
    <path class="cls-55" d="m192.36,117.32c-.26-.09-.25-.55-.24-.79.31-.13.57.04.9.5-.05.26-.23.32-.66.29Z"/>
    <path class="cls-55" d="m152.11,116.53c.31-.13.57.04.89.49-.05.26-.22.32-.65.29-.26-.09-.25-.55-.24-.78Z"/>
    <path class="cls-72" d="m398.15,121.57c.08-.25.26-.27.7-.3.27-.01.3.46.3.7-.3.11-.6-.03-1-.4Z"/>
    <path class="cls-72" d="m400.43,123.46c.21-.15.42-.02.66.38-.22.19-.45.07-.66-.38Z"/>
    <path class="cls-72" d="m404.32,127.55c.31-.17.54,0,.75.51-.3.21-.57.04-.75-.51Z"/>
    <path class="cls-47" d="m91.35,142.54c.2.03.31.33.26.72-.22-.09-.29-.27-.26-.72Z"/>
    <path class="cls-47" d="m395.02,197.1c-.25.09-.42-.08-.53-.3-.04-.07.08-.23.29-.45.22.08.28.27.24.75Z"/>
    <path class="cls-47" d="m394.99,237.1c-.24.09-.42-.08-.53-.29-.04-.07.08-.23.28-.45.22.08.28.27.25.75Z"/>
    <path class="cls-47" d="m394.98,273.09c-.21-.02-.32-.33-.28-.75.23.08.3.27.28.75Z"/>
    <path class="cls-18" d="m98.87,107.48c-.19.83-.63,1.82-1.41,2.82.16-.88.66-1.77,1.41-2.82Z"/>
    <path class="cls-11" d="m53.11,86.81c.45-.39.9-.42,1.68-.39-.38,2.2-.49,4.89-1.89,6.39-6.59,7.02-13.52,13.72-20.36,20.49-.4.39-1.07.5-2.41,1.09.64-1.74.74-2.99,1.41-3.7,5.91-6.24,11.95-12.34,17.86-18.57,1.41-1.49,2.48-3.3,3.71-5.32Z"/>
    <path class="cls-14" d="m31.12,88.18c.38-.79.91-1.28,1.75-1.76-.33.7-.96,1.38-1.75,1.76Z"/>
    <path class="cls-64" d="m405.47,99.27c-.45-.28-.64-.54-1.13-.85,2.43-3.57,5.08-7.02,7.77-10.82,1.14-.62,2.24-.88,3.68-1.11-.92,2.07-1.99,4.25-3.51,6.07-1.97,2.38-4.29,4.46-6.81,6.71Z"/>
    <path class="cls-50" d="m352.16,115.95c-1.43.35-2.82.35-4.63.34-.47-5.99,5.44-7.55,8.35-11.28,4.15-5.34,9.89-9.45,15.39-14.54.92-1.64,1.38-2.83,1.85-4.01.45-.03.9-.05,1.68.35.33,1.46.33,2.48.33,3.51-6.26,6.43-12.59,12.8-18.75,19.33-1.65,1.74-2.8,3.96-4.21,6.31Z"/>
    <path class="cls-11" d="m375.47,90.25c-.35-.96-.35-1.99-.34-3.4.45-.41.89-.44,1.67-.41-.11,1.29-.54,2.52-1.33,3.81Z"/>
    <path class="cls-11" d="m372.78,86.4c-.13,1.23-.6,2.42-1.36,3.76-.3-.88-.3-1.9-.3-3.32.44-.42.89-.45,1.67-.44Z"/>
    <path class="cls-11" d="m357.12,86.81c.45-.39.89-.42,1.67-.4-.11.97-.56,1.88-1.34,2.85-.33-.66-.33-1.38-.33-2.45Z"/>
    <path class="cls-11" d="m326.11,115.95c-.45.33-.89.34-1.67.33.12-.64.58-1.26,1.35-1.93.32.4.32.83.31,1.6Z"/>
    <path class="cls-28" d="m156.47,90.3c.43-.64,1.22-1.29,2.33-1.96-.44.64-1.21,1.3-2.33,1.96Z"/>
    <path class="cls-28" d="m161.8,98.35c-.13.59-.59,1.23-1.36,1.91.13-.59.59-1.23,1.36-1.91Z"/>
    <path class="cls-28" d="m146.8,113.35c-.13.59-.59,1.23-1.36,1.91.13-.59.59-1.23,1.36-1.91Z"/>
    <path class="cls-3" d="m127.78,108.35c-.76,1.27-1.87,2.58-3.31,3.93.76-1.27,1.87-2.58,3.31-3.93Z"/>
    <path class="cls-11" d="m136.45,89.26c-.56-.71-.79-1.47-1.15-2.5.63-.3,1.39-.33,2.52-.29-.1.96-.57,1.85-1.37,2.78Z"/>
    <path class="cls-28" d="m285.11,116.28c-4.02,0-8.04.02-12.49-.33.84-2.24,1.86-4.36,3.42-5.97,5.85-6.06,11.95-11.87,17.74-17.99.99-1.04.87-3.13,1.26-4.73,5.07-.31,10.13-.61,15.67-.86.45,1.09.43,2.11.27,3.82-5.84,6.12-11.57,11.52-17.2,17.02-2.98,2.92-5.78,6.02-8.66,9.04Z"/>
    <path class="cls-28" d="m246.11,116.29c-4.36,0-8.71.01-13.53.02.77-2.07,1.69-4.45,3.31-6.15,5.67-5.97,11.67-11.62,17.35-17.58,1.35-1.42,1.94-3.56,2.88-5.74,4.76-.31,9.51-.25,14.64.34.03,1.4-.31,2.27-1,3.17-1.45,1.68-2.55,3.32-3.79,5.26-4.1,4.01-8.17,7.6-11.95,11.47-2.82,2.88-5.28,6.13-7.9,9.21Z"/>
    <path class="cls-28" d="m266.11,116.27c-4.69.01-9.37.02-14.49-.31,7.17-8.54,14.81-16.69,22.31-24.96,1.08-1.19,1.48-3,2.19-4.52,5.05.25,10.11.51,15.53,1.18-4.35,5.21-9.19,9.88-13.74,14.81-4.1,4.45-7.88,9.19-11.8,13.8Z"/>
    <path class="cls-11" d="m266.54,116.28c3.49-4.62,7.27-9.37,11.38-13.81,4.55-4.94,9.4-9.6,14.15-14.73.77-.38,1.5-.42,2.6-.47-.03,1.6.09,3.68-.89,4.72-5.78,6.12-11.89,11.93-17.74,17.99-1.55,1.61-2.58,3.73-3.88,5.97-1.75.35-3.47.35-5.61.33Z"/>
    <path class="cls-23" d="m275.76,86.41c-.35,1.58-.75,3.39-1.83,4.58-7.5,8.28-15.14,16.43-22.77,24.96-1.43.35-2.82.35-4.63.34,2.2-3.09,4.66-6.33,7.49-9.22,3.79-3.87,7.86-7.46,12.25-11.62,1.58-2.01,2.71-3.58,3.85-5.15.34-.87.67-1.73,1.03-2.98,1.43-.58,2.84-.79,4.62-.93Z"/>
    <path class="cls-28" d="m227.12,115.92c-4.69.37-9.38.38-14.53.38,4.67-5.9,9.8-11.8,15.23-17.85,3.92-.15,7.88-.83,9.15,4.52-3.18,4.42-6.51,8.5-9.85,12.95Z"/>
    <path class="cls-28" d="m306.16,115.92c-4.06.36-8.09.37-12.57.05-.46-.77-.46-1.22-.32-1.96,3.54-4.09,6.87-7.93,10.33-11.65,4.11-4.41,8.34-8.7,12.86-13.1.77-.77,1.21-1.49,1.65-2.21,3.7-.24,7.41-.48,11.56-.66-3.5,5.32-7.28,10.71-11.44,15.8-3.79,4.63-8,8.93-12.07,13.72Z"/>
    <path class="cls-50" d="m316.12,89.31c-4.18,4.34-8.41,8.64-12.52,13.05-3.47,3.72-6.8,7.56-10.65,11.69-.92.98-1.37,1.61-1.83,2.24-1.72,0-3.44,0-5.58,0,2.45-3.03,5.25-6.13,8.23-9.05,5.63-5.5,11.36-10.9,17.2-16.64.83-1.21,1.52-2.13,2.27-3.42.77-.32,1.47-.27,2.52.2.35.92.36,1.42.36,1.91Z"/>
    <path class="cls-11" d="m316.46,89.26c-.34-.45-.34-.94-.35-1.82.44-.4.88-.41,1.66-.41-.1.74-.54,1.46-1.31,2.23Z"/>
    <path class="cls-11" d="m291.46,116.3c.12-.64.57-1.27,1.34-1.94.32.4.32.84.32,1.61-.44.33-.89.34-1.66.34Z"/>
    <path class="cls-11" d="m269.76,90.35c-.78,1.53-1.92,3.1-3.35,4.81.8-1.49,1.9-3.14,3.35-4.81Z"/>
  </g>
</svg>